<?xml version="1.0" encoding="UTF-8"?>
<svg xmlns="http://www.w3.org/2000/svg" viewBox="0 0 846 505" width="846" height="505">
<path d="M0.25 0.25C282.08 0.25 563.92 0.25 845.75 0.25C845.75 168.42 845.75 336.58 845.75 504.75C563.92 504.75 282.08 504.75 0.25 504.75C0.25 336.58 0.25 168.42 0.25 0.25ZM361.02 14.12C359.1 14.58 357.18 15.04 355.26 15.5C353.31 20.44 355.35 26.72 355.18 32C355.24 34.5 355.3 37 355.36 39.5C355.6 39.65 355.84 39.8 356.08 39.95C356.99 48.3 357.9 56.65 358.8 65C358.49 65.17 358.18 65.33 357.87 65.5C358.04 67.17 358.21 68.83 358.39 70.5C358.67 70.59 358.95 70.67 359.23 70.76C359.43 72.17 359.62 73.59 359.82 75C359.5 75.17 359.19 75.33 358.87 75.5C359.02 76.83 359.18 78.17 359.33 79.5C359.61 79.67 359.89 79.84 360.17 80.02C360.34 81.01 360.52 82.01 360.7 83C360.37 83.17 360.04 83.33 359.71 83.5C359.89 84.83 360.07 86.17 360.24 87.5C360.54 87.65 360.84 87.8 361.13 87.95C362.08 93.12 360.3 97.24 367 97.24C367.17 97.56 367.33 97.87 367.5 98.18C369.83 98.01 372.17 97.83 374.5 97.66C374.69 97.4 374.89 97.14 375.08 96.87C376.39 96.67 377.69 96.47 379 96.27C379.17 96.59 379.33 96.9 379.5 97.22C381.17 97.01 382.83 96.81 384.5 96.61C384.64 96.37 384.78 96.13 384.92 95.89C392.56 94.32 400.73 94.04 408.5 93.17C412.64 92.7 417.15 92.99 420.45 90.5C419.75 86.17 419.06 81.83 418.36 77.5C414.91 77.56 411.45 77.63 408 77.69C407.83 77.35 407.67 77.01 407.5 76.68C405.63 77.15 403.76 77.61 401.89 78.08C400.92 78.26 399.96 78.45 399 78.63C395.79 76.9 384.94 79.11 380.5 78.99C379.96 77.37 379.43 75.75 378.89 74.12C378.36 69.08 377.83 64.04 377.3 59C377.62 58.83 377.94 58.67 378.26 58.5C378.04 56.5 377.82 54.5 377.59 52.5C377.35 52.35 377.11 52.21 376.86 52.06C376.15 44.71 375.45 37.35 374.74 30C374.49 27.98 374.24 25.96 373.99 23.95C373.5 20.8 373.01 17.65 372.51 14.5C371.68 14.06 370.84 13.61 370 13.17C367.17 13.23 364.33 13.29 361.5 13.35C361.34 13.61 361.18 13.86 361.02 14.12ZM450.86 80.82C453.57 80.53 456.28 80.24 458.99 79.95C461.06 80.25 463.12 80.54 465.18 80.84C465.29 81.06 465.39 81.28 465.5 81.5C467.12 81.64 468.75 81.78 470.37 81.91C470.42 82.13 470.46 82.35 470.5 82.57C471.83 82.77 473.17 82.97 474.5 83.16C474.67 82.87 474.83 82.57 475 82.28C478.46 83.02 481.92 83.76 485.38 84.5C485.62 85.97 485.86 87.44 486.09 88.92C486.4 92.78 486.71 96.64 487.01 100.5C487.4 100.57 487.78 100.65 488.16 100.72C493.04 102.71 501.82 105.17 506.5 102.56C501.19 74.21 495.87 45.85 490.56 17.5C488.04 16.86 485.52 16.21 483 15.57C481.04 13.2 476.49 13.24 473.5 12.73C473.33 13.06 473.17 13.38 473 13.71C472.17 13.68 471.33 13.65 470.5 13.62C465.73 17.1 459.68 30.31 456.49 36.01C449.84 47.9 442.67 59.54 435.88 71.35C432.56 77.13 427.92 83.1 426.06 89.5C429.75 93.02 437.67 93.5 442.69 93.5C445.41 89.27 448.13 85.04 450.86 80.82ZM298 31.12C292.34 33.09 286.67 35.06 281.01 37.03C278.64 37.16 277.63 37.44 275.96 39.11C270.66 41.62 261.66 42.41 258.5 47.48C267.83 72.94 277.17 98.4 286.5 123.86C291.71 123.93 299.6 121.07 303.56 117.5C302.63 111.02 299.27 104.7 296.78 98.67C295.62 95.86 293.69 92.71 294.87 89.96C296.75 89.52 298.62 89.08 300.5 88.64C300.58 88.37 300.66 88.11 300.73 87.84C309.4 83.06 318.59 81.94 325.65 74.16C335.38 63.45 332.29 46.45 322.37 37C319.57 34.34 316.26 32.83 312.87 31.17C312.75 30.83 312.62 30.49 312.5 30.16C308.07 29.53 301.73 28.55 298 31.12ZM478.02 37.11C478.75 41.74 479.49 46.37 480.23 51C480.27 52.5 480.32 54 480.36 55.5C480.62 55.66 480.87 55.82 481.12 55.97C482.27 59.97 483.17 64.5 482.55 68.5C482.03 68.4 481.52 68.3 481.01 68.2C480.84 67.89 480.67 67.59 480.5 67.28C477.83 66.76 475.17 66.24 472.5 65.72C472.33 66.07 472.17 66.42 472 66.77C467.84 66.01 463.68 65.26 459.52 64.5C462.97 58.28 466.42 52.05 469.86 45.83C470.24 45.72 470.62 45.61 471 45.5C471.59 44.5 472.18 43.5 472.77 42.5C472.52 42.27 472.27 42.04 472.02 41.82C472.95 40.16 473.89 38.51 474.82 36.85C475.38 36.6 475.94 36.34 476.5 36.09C477.01 36.43 477.51 36.77 478.02 37.11ZM551.76 79.58C552.07 79.55 552.39 79.53 552.71 79.5C553.64 78.05 554.57 76.6 555.5 75.16C555.6 76.27 555.7 77.39 555.8 78.5C556.15 78.67 556.49 78.83 556.83 79C557.19 84 557.54 89 557.89 94C557.6 94.17 557.31 94.33 557.02 94.5C557.13 95.83 557.23 97.17 557.34 98.5C557.61 98.67 557.89 98.84 558.16 99.02C558.69 104.34 559.21 109.67 559.73 115C559.41 115.17 559.09 115.33 558.77 115.5C558.97 119.17 559.17 122.83 559.37 126.5C559.63 126.68 559.9 126.86 560.16 127.03C560.48 128.37 560.53 130.05 561.23 131.25C563.03 134.33 573.17 138.53 576.5 138.58C589.02 114.56 601.54 90.53 614.07 66.5C610.95 62.8 604.22 59.68 599.5 58.97C596.15 61.82 594.34 66.92 592.39 70.89C587.72 80.37 583.07 90.67 577.24 99.47C576.66 99.9 576.08 100.33 575.5 100.76C575.21 99.34 574.92 97.92 574.63 96.5C574.4 96.35 574.16 96.19 573.93 96.04C572.39 84.38 571.87 72.25 571.29 60.5C571.08 56.31 571.83 47.21 569.92 43.67C568.23 40.53 558.9 36.8 555.5 35.92C550.68 39.87 548.34 48.35 545.37 53.88C538.95 65.83 532.65 77.83 526.36 89.84C523.27 95.74 518.29 101.98 517.11 108.5C520.79 112.24 527.31 115.71 532.5 115.94C538.92 103.82 545.34 91.7 551.76 79.58ZM281.86 57.13C281.97 55.92 282.08 54.71 282.19 53.5C283.13 52.97 284.08 52.43 285.02 51.9C289.91 48.66 298.53 45.8 304.34 47.26C311.63 49.1 314.99 59.53 311.12 65.63C308.15 70.29 293.89 74.97 288.5 75.74C286.29 69.54 284.07 63.34 281.86 57.13ZM596.91 156.86C597.04 157.4 597.17 157.95 597.3 158.5C598.19 159.01 599.09 159.52 599.98 160.04C601.16 160.82 602.33 161.6 603.5 162.38C609.66 159.65 613.51 152.79 618.76 148.62C621.04 146.32 623.33 144.03 625.61 141.73C625.98 141.32 626.35 140.92 626.72 140.51C628.84 138.84 630.95 137.17 633.06 135.5C632.75 135.3 632.45 135.1 632.14 134.89C634.09 132.95 636.05 131 638.01 129.06C638.69 129.37 639.37 129.67 640.05 129.98C637.84 142.52 634.47 155.23 631.32 167.58C630.22 171.88 626.62 181.27 627.3 185.37C627.91 189.03 636.17 196.18 639.5 197.13C650.27 186.67 661.05 176.2 671.82 165.74C674.3 164.6 676.11 162.52 677.13 160.02C681.7 154.1 695.81 143.7 696.97 137.5C693.15 133.92 689.32 130.34 685.5 126.76C681.01 128.88 677.93 133.44 674.47 136.97C667.04 144.56 659.4 154.64 651 160.91C650.83 160.77 650.66 160.64 650.48 160.5C650.27 159.59 650.06 158.68 649.84 157.78C651.42 145.38 655.07 132.68 658.13 120.55C659.61 114.7 662.09 108.54 661.59 102.5C657.89 99.19 654.2 95.89 650.5 92.58C644.67 94.39 637.74 104.09 633.17 108.66C622.84 119 612.31 129.15 602.12 139.64C598.86 143 595.18 145.95 592.13 149.5C592.84 152.71 594.83 154.37 596.91 156.86ZM216.5 134C217.41 128.54 219.69 124.31 218.89 118.5C216.89 104.02 201.71 93.6 187.74 97.37C177.02 100.26 166.21 112.2 158.09 119.58C154.36 122.96 149.33 126.07 146.93 130.5C149.08 136.86 158.01 144.67 162.73 149.75C170.75 158.39 178.69 167.17 186.41 176.09C190.73 181.09 195.19 187.31 200.5 191.19C205.11 189.82 211.47 183.8 213.77 179.5C207.43 172.17 201.09 164.83 194.75 157.5C197.67 154.49 200.58 151.49 203.5 148.48C215.24 148.7 225.91 157.71 237.5 158.84C241.94 155.49 248.86 150.86 250.31 145.5C243.58 141.04 225.14 136.89 216.5 134ZM172.11 132.13C172.26 131.92 172.4 131.71 172.55 131.5C172.12 130.83 171.69 130.17 171.25 129.5C172.05 128.26 172.86 127.02 173.66 125.78C179.92 118.38 191.88 107.67 199.81 119.7C205.5 128.33 197.71 134.89 191.73 140.22C189.4 142.29 187.36 144.54 184.5 145.74C180.37 141.2 176.24 136.67 172.11 132.13ZM155.11 235.14C152.03 235.79 148.95 236.45 145.87 237.11C139.56 236.23 134.31 231.86 129.09 228.44C122.16 223.9 114.77 220.11 107.88 215.53C103.47 212.59 98.7 208.94 93.5 207.86C89.33 211.23 86.05 217.39 84.64 222.5C89.3 228.2 99.97 232.95 106.43 237.01C123.24 247.57 147.55 266.99 165.92 248.41C168.7 245.59 171.29 242.19 173.31 238.78C175.62 234.87 177.42 230.71 178.65 226.35C179.58 223.05 180.01 219.94 179.91 216.5C179.27 195.47 159.85 188.63 144.35 179.15C137.39 174.89 125.98 166.52 118.5 164.67C114.79 168.02 111.48 173.76 109.95 178.5C112.22 182.34 117.17 184.22 120.89 186.63C129.82 192.42 139.1 197.68 148.02 203.49C151.47 205.74 155.13 207.54 158.24 210.27C165.97 217.05 163.73 230 155.11 235.14ZM669.14 248.88C670.11 250.61 671.09 252.33 672.06 254.06C674.84 258.07 676.13 263.71 680.5 266.15C684.67 264.89 689.62 262.33 691.86 258.5C685.55 246.5 679.24 234.5 672.94 222.5C677.25 219.95 681.57 217.4 685.89 214.85C687.21 214.61 688.53 214.38 689.85 214.15C695.73 224.4 701.62 234.64 707.5 244.89C711.99 244.49 716.47 241.87 719.53 238.5C713.79 227.5 708.04 216.5 702.29 205.5C707.71 202.5 713.12 199.5 718.53 196.5C722.34 200.51 729.26 214.64 732.23 220.29C734.25 224.11 735.85 228.98 739.5 231.32C743.66 230.11 747.91 227.67 750.9 224.5C750.04 219.15 745.89 214.04 743.25 209.27C738.73 201.13 734.13 193.05 729.56 184.94C727.37 181.05 725.58 176.47 722.5 173.23C716.09 173.74 709.21 179.9 703.51 183C691.27 189.68 679.18 196.68 667.02 203.5C662.05 206.29 654.55 209.01 651.08 213.5C657.1 225.29 663.12 237.09 669.14 248.88ZM247 270C246.98 274.98 250.95 289.7 254.12 293.13C254.95 294.77 255.79 296.41 256.62 298.05C255.8 302.64 257.86 307.66 259.74 311.99C265.1 331.03 270.45 350.08 275.8 369.12C275.6 369.42 275.4 369.71 275.2 370C273.07 371.21 273.13 371.66 273.1 374.11C273.06 374.57 273.03 375.04 272.99 375.5C269.38 377.51 264.08 376.35 260 376.02C259.83 375.71 259.67 375.4 259.5 375.09C256.83 375.06 254.17 375.02 251.5 374.99C251.33 375.28 251.17 375.58 251 375.88C246.32 375.64 241.64 375.41 236.96 375.17C233.84 373.43 216.17 372.53 213 374.07C212.67 374.07 212.33 374.07 212 374.07C211.83 373.75 211.67 373.44 211.5 373.13C209.83 373.04 208.17 372.96 206.5 372.87C206.33 373.22 206.17 373.56 206 373.91C199.76 373.77 193.52 373.64 187.28 373.5C186.58 380.26 189.32 379.28 194.89 380.01C195.1 380.29 195.3 380.57 195.5 380.85C196.83 380.96 198.17 381.07 199.5 381.18C199.67 380.87 199.83 380.55 200 380.24C205.31 380.82 210.61 381.4 215.92 381.98C217.45 382.36 218.97 382.74 220.5 383.12C220.67 382.82 220.83 382.52 221 382.23C226.03 382.8 231.07 383.37 236.1 383.94C236.23 384.14 236.37 384.35 236.5 384.56C238.17 384.78 239.83 384.99 241.5 385.21C241.67 384.9 241.83 384.59 242 384.27C252.83 385.49 263.67 386.72 274.5 387.94C277.97 392.91 281.44 397.89 284.91 402.86C284.71 403.07 284.51 403.29 284.31 403.5C285.54 404.4 286.77 405.3 288 406.2C293.35 410.09 298.7 413.99 304.05 417.88C304.37 418.76 304.69 419.63 305.01 420.5C304.34 420.94 303.67 421.38 303 421.82C300.33 421.82 297.66 421.82 294.99 421.83C290.69 419.78 284.28 421.17 279.5 421.24C267.51 421.43 255.49 421.56 243.5 422.06C238.89 422.26 230.58 421.3 227 423.78C226.33 423.8 225.67 423.81 225 423.83C224.83 423.48 224.67 423.13 224.5 422.78C219.17 423.01 213.83 423.23 208.5 423.45C208.33 423.67 208.16 423.88 208 424.09C203.33 424.34 198.67 424.58 194 424.83C191.82 423.36 189.27 423.82 186.5 423.91C180.82 424.1 175.18 424.55 169.5 424.66C167.55 424.7 164.27 424.17 162.51 425.14C162.14 425.34 162.2 425.95 161.88 426.22C160.67 428.48 160.89 429.74 162.34 431.79C164.82 433.38 179.2 433.9 182 432.26C187.29 432.5 192.58 432.73 197.87 432.97C201.41 433.35 204.96 433.73 208.5 434.11C208.67 433.78 208.83 433.46 209 433.14C216.28 433.42 223.57 433.69 230.85 433.97C234.16 435.4 247.9 436.01 251 434.24C256.35 434.44 261.69 434.64 267.04 434.84C270.01 436.38 285.19 437.03 288 435.29C290.63 435.47 293.25 435.66 295.88 435.84C296.09 436.1 296.29 436.35 296.5 436.61C301.83 436.81 307.17 437.01 312.5 437.22C312.67 436.9 312.83 436.58 313 436.27C317.33 436.5 321.66 436.74 325.99 436.97C328.93 437.48 331.88 437.99 334.82 438.5C334.58 439.36 334.33 440.23 334.08 441.09C333.42 442.62 332.76 444.14 332.1 445.67C331.67 445.95 331.23 446.22 330.8 446.5C330.51 449.5 330.22 452.5 329.93 455.5C330.26 455.67 330.59 455.83 330.92 456C333.06 465.54 338.22 470.77 346.83 474.92C350.74 478.12 364.43 478.17 368.89 475.92C370.39 475.45 371.89 474.97 373.4 474.5C362.73 472.77 352.93 468.29 349.96 456.93C349.63 454.58 349.29 452.24 348.95 449.89C348.93 449.63 348.91 449.36 348.89 449.1C350.24 444.68 351.59 440.26 352.94 435.85C358.37 423.78 377.13 422.4 386.19 430.74C387.5 432.11 388.82 433.48 390.14 434.84C394.41 438.98 394.46 444.48 396.5 449.69C406.62 451.44 416.75 453.2 426.87 454.95C427.08 455.25 427.29 455.55 427.5 455.86C430.83 455.87 434.17 455.88 437.5 455.89C437.67 455.59 437.83 455.29 438 454.99C452.52 453.13 466.59 451.26 480.29 445.74C485.45 443.66 493.83 436.79 499 437.81C502.5 438.03 506 438.24 509.5 438.46C509.67 438.1 509.83 437.74 510 437.38C511.33 437.37 512.67 437.35 514 437.33C514.28 437.96 514.57 438.58 514.85 439.2C506.71 448.85 508.31 463.45 518.39 471.09C521.99 473.82 526.05 474.51 530.23 475.8C530.32 476.04 530.41 476.29 530.5 476.54C534.17 476.59 537.83 476.63 541.5 476.68C541.67 476.46 541.83 476.24 542 476.01C543.55 475.51 545.1 475 546.64 474.5C546.43 474.36 546.21 474.21 546 474.07C545.83 473.62 545.67 473.18 545.5 472.74C544.31 472.53 543.12 472.33 541.92 472.13C528.68 466.41 526.64 451.83 529.94 439.39C530.29 438.7 530.65 438 531 437.3C532.33 437.28 533.67 437.25 535 437.23C534 437.65 533 438.08 532 438.5C534.17 438.55 536.33 438.6 538.5 438.65C538.75 439.18 539.01 439.7 539.26 440.23C538.22 443.77 537.17 447.31 536.12 450.85C536.45 453.4 536.78 455.95 537.11 458.5C537.46 458.61 537.81 458.71 538.16 458.82C547.32 470.66 563.79 468.4 566.51 453.08C567.44 447.83 565.45 443.45 563.01 439C563.14 438.5 563.27 438 563.4 437.5C562.1 437.33 560.8 437.17 559.5 437C559.33 436.78 559.17 436.57 559 436.35C560.03 436.27 561.06 436.19 562.09 436.12C566.48 436.73 571.04 436.13 575.5 436.03C590.71 435.69 605.89 434.05 621 432.71C629 432.6 637 432.49 645 432.38C649.11 434.7 661.24 433.17 666.5 433.15C669.36 433.15 671.91 433.56 673.93 431.92C673.98 430.65 674.02 429.37 674.07 428.09C673.88 427.66 673.69 427.22 673.5 426.79C670.17 426.7 666.83 426.6 663.5 426.51C663.33 426.9 663.17 427.28 663 427.67C658 427.51 653 427.35 648 427.18C647.83 426.84 647.67 426.5 647.5 426.16C644.5 426.11 641.5 426.05 638.5 426C638.45 425.66 638.4 425.32 638.35 424.99C641.38 422.41 644.42 419.84 647.45 417.27C655.59 412.44 657 398 651.37 390.73C647.65 383.68 641.34 378.19 634.94 373.35C633.17 372.01 632.69 370.23 630.77 369.26C627.15 364.89 623.53 360.53 619.92 356.16C618.3 352.75 614.73 350.18 612.22 347.23C605.26 339.05 597.57 332.73 587.5 328.72C588.18 333.42 585.63 332.16 581.78 332.5C593.68 337.57 602.79 344.99 612.32 353.5C610.22 354.23 608.11 354.96 606 355.69C591.88 355.42 577.74 355.27 563.62 355.47C557.54 355.56 550.89 357.9 551.84 365.5C552.73 372.63 562.43 371.55 567.5 371.43C583.99 371.07 600.51 371.26 617 371.22C617.17 371.53 617.33 371.85 617.5 372.16C618.83 372.15 620.17 372.14 621.5 372.13C621.67 371.82 621.83 371.51 622 371.2C624.68 371.38 627.36 371.56 630.04 371.74C633.25 375.64 637.14 380.03 641.03 383.41C643.42 385.49 646.57 387.02 647.64 390.02C610.09 387.28 572.55 384.55 535 381.81C534.5 380.54 534 379.27 533.5 378C533.33 379.24 533.17 380.49 533 381.73C529.53 381.76 526.06 381.16 522.68 381.08C503.43 380.59 483.88 379.26 464.5 379.32C459.17 379.34 453.83 379.33 448.5 379.19C446.06 379.12 443.44 379.63 442.16 377.34C444.47 374.06 444.81 370.82 443.5 367.12C438.34 367.73 437.06 372.9 438.7 377.51C438.47 377.84 438.23 378.17 438 378.5C435.5 378.49 433 378.48 430.5 378.47C430.32 378.05 430.15 377.62 429.97 377.2C431.4 374.1 431.85 371.67 430.69 368.5C429.19 368.75 427.69 369 426.19 369.25C425.81 369.33 425.42 369.42 425.04 369.5C423.96 372.53 423.63 374.9 424.03 378.09C421.85 378.39 419.68 378.7 417.5 379C417.44 378.72 417.38 378.43 417.31 378.15C417.5 377.44 417.69 376.73 417.88 376.03C418.22 375.85 418.56 375.68 418.9 375.5C418.96 373.83 419.02 372.17 419.08 370.5C418.69 370.29 418.31 370.07 417.93 369.86C412.43 367.38 411.62 373.27 411.27 377.43C411.01 377.86 410.76 378.28 410.5 378.7C408.5 378.81 406.5 378.92 404.5 379.03C404.27 378.69 404.04 378.34 403.81 377.99C403.96 375.83 404.11 373.66 404.26 371.5C398.71 370.42 398.57 374.1 397.94 378.8C395.8 379.03 393.65 379.27 391.5 379.5C391.3 379.27 391.1 379.03 390.9 378.79C390.87 377.19 391.49 374.36 390.48 372.99C387.35 368.71 384.91 377.05 384.59 378.66C384.23 378.85 383.86 379.03 383.5 379.22C382.83 379.07 382.17 378.92 381.5 378.76C380.35 379.05 379.19 379.35 378.04 379.64C378.06 377.92 378.07 376.21 378.09 374.5C373.85 372.19 372.54 375.91 371.75 379.67C369.83 379.75 367.92 379.84 366 379.92C366.08 375.85 365.63 374.34 361.5 373.95C361.39 374.36 361.29 374.77 361.18 375.19C360.49 376.66 359.79 378.14 359.1 379.61C357.07 379.58 355.03 379.54 353 379.5C352.77 379.21 352.54 378.92 352.31 378.64C352.04 377.79 351.77 376.94 351.5 376.09C348.43 376.35 347.9 376.86 346.67 379.72C344.51 379.51 342.34 379.29 340.18 379.08C339.82 376.66 339.88 376.78 337.5 375.71C337.33 376.06 337.17 376.41 337 376.75C336.5 376.88 336 377.01 335.5 377.14C334.97 378.07 334.44 379.01 333.91 379.95C331.78 379.91 329.64 379.87 327.5 379.83C327.07 379.53 326.64 379.23 326.2 378.94C325.97 378.65 325.73 378.36 325.5 378.08C324.23 378.64 322.96 379.2 321.69 379.75C319.08 379.7 316.47 379.65 313.87 379.6C313.89 379.57 313.91 379.53 313.94 379.5C312.64 379.27 311.34 379.04 310.04 378.81C304.11 373.96 299.2 372.7 296.89 364.48C298.76 363.59 300.63 362.7 302.5 361.8C302.55 361.49 302.61 361.18 302.66 360.87C304.88 360.42 307.09 359.96 309.3 359.5C308.87 359.15 308.43 358.81 308 358.46C308.6 358.3 309.2 358.15 309.8 357.99C313.16 359.53 318.14 356.34 321.77 355.42C327.44 353.97 333.7 354.35 339.5 353.92C339.83 352.95 340.17 351.97 340.5 351C344 351.17 347.5 351.33 351 351.5C348 351.83 345 352.17 342 352.5C342.35 352.76 342.32 353.42 342.72 353.59C344.77 354.5 352.99 352.62 355.55 352.36C362.21 351.68 368.83 350.62 375.5 349.96C381.28 349.39 387.46 349.15 393 347.5C391 347.17 389 346.83 387 346.5C389.16 346.07 394.73 344.59 394.5 347.82C408.78 345.69 423.2 344.44 437.53 342.71C462.67 339.68 487.78 336.04 512.98 333.54C535.86 331.28 558.89 325.67 581.5 332.39C581.32 332.02 581.48 331.54 581.28 331.18C581.27 331.17 580.4 330.74 580.44 330.5C580.63 329.41 586.32 328.76 587.15 328.5C573.43 323.29 556.4 320.66 542 324.5C543.67 324.83 545.33 325.17 547 325.5C542.36 326.43 539.73 324.75 535.5 324.81C523.23 324.98 509.74 327.47 497.5 329.03C494.29 329.44 485.13 329.63 482.75 331.16C482.28 331.46 482.47 332.51 482.5 333C478.33 330.36 473.32 332.26 468.5 332.73C456.14 333.94 443.86 335.87 431.5 337.07C432.5 337.71 433.5 338.36 434.5 339C431.34 339 428.5 337.96 425.47 337.89C421.4 337.79 417 338.95 412.98 339.48C404.65 340.59 396.29 341.4 387.97 342.49C383.59 343.06 375.17 342.35 372.5 346C370.41 343 363.92 345.52 360.5 345.96C355.18 346.64 349.83 347.34 344.54 348.19C339.93 348.93 335.01 350.5 330.33 350.57C328.11 350.61 326.08 349.98 323.86 350.12C320.96 348.77 318.06 347.41 315.16 346.06C312.39 343.45 309.61 340.84 306.84 338.22C305.86 336.85 304.89 335.48 303.92 334.11C303.5 331.68 302.88 330.37 300.89 328.91C297.55 323.31 294.22 317.72 290.89 312.12C290.45 309.74 289.83 308.43 287.85 307.08C287.21 306.09 286.57 305.1 285.93 304.11C285.52 301.75 285.04 300.38 282.98 299.06C281.97 297.4 280.96 295.74 279.96 294.07C278.96 291.88 277.97 289.69 276.97 287.5C276.56 287.42 276.16 287.34 275.75 287.26C275.13 286.23 274.51 285.19 273.89 284.15C273.56 281.62 273.03 280.43 270.83 279.11C270.21 278.11 269.59 277.1 268.97 276.09C268.12 271.18 261.49 261.43 257.5 258.12C256.67 258.33 255.83 258.54 255 258.76C252.67 258.74 250.33 258.73 248 258.72C245.17 256.99 240.91 257.92 237.5 258.06C228.79 258.42 219.69 258.12 211.09 259.5C211.2 259.94 211.82 265.18 211.75 265.34C211.24 266.65 211.34 265.3 210.52 266.5C222.68 267.67 234.84 268.84 247 270ZM759.88 262.97C754.03 265.04 747.81 266.05 741.76 267.4C731.3 269.74 720.98 272.73 710.48 274.86C703.65 276.25 691.11 277.54 685.72 281.5C686.98 286.88 688.24 292.26 689.5 297.64C699.24 298.81 708.91 292.82 718.64 292.5C719.82 297.17 721 301.83 722.17 306.5C717.36 312.9 709.73 317.88 703.75 323.24C701.88 324.92 698.18 327.36 697.25 329.73C695.85 333.28 697.77 338.26 698.13 341.93C698.22 343.45 698.31 344.98 698.4 346.5C698.64 346.59 698.88 346.68 699.13 346.77C700.25 347.17 701.38 347.57 702.5 347.97C710.62 340.59 718.75 333.2 726.87 325.82C727.41 325.62 727.96 325.42 728.5 325.22C729.37 325.38 730.25 325.54 731.12 325.7C735.66 329.83 739.31 331.87 745.09 333.95C745.22 334.18 745.36 334.4 745.5 334.62C748.67 335.02 751.4 335.35 754.19 333.84C759.88 332.16 765.41 330.66 769.47 325.96C780.67 313.01 773.71 294.02 770.21 279.44C768.9 273.95 767.99 268.32 765.97 263.03C765.81 262.61 765.66 262.18 765.5 261.75C763.83 261.83 762.17 261.91 760.5 261.99C760.29 262.32 760.09 262.64 759.88 262.97ZM60.07 299.87C59.77 300.08 59.46 300.29 59.15 300.5C59.18 305.5 59.2 310.5 59.23 315.5C59.52 315.65 59.82 315.8 60.12 315.94C66.69 336.33 78.3 337.86 97.28 342.34C108.22 344.92 119.8 347 129.8 340.35C147.22 328.76 151.35 296.22 135.71 281.8C129.91 276.45 123.07 275.65 116 273.09C114.26 271.82 113.32 271.8 111.11 272.04C104.89 270.97 98.86 269.05 92.5 268.77C78.83 268.16 68.63 276.82 63.46 288.93C61.94 292.48 61.45 296.33 60.07 299.87ZM750.93 284.91C752.45 284.9 753.98 284.89 755.5 284.87C756 285.26 756.5 285.64 756.99 286.02C758.85 292.54 762.08 302.44 759.49 309.02C756.14 317.5 743.74 317.27 739.08 310.39C735.48 305.06 735.06 297.19 734.14 291C734.59 290.44 735.05 289.88 735.5 289.32C736.5 289.05 737.5 288.79 738.5 288.52C738.58 288.29 738.65 288.06 738.73 287.83C742.79 286.86 746.86 285.89 750.93 284.91ZM75.2 308C75.48 307.83 75.76 307.67 76.03 307.5C76.09 305.83 76.15 304.17 76.21 302.5C75.92 302.33 75.62 302.17 75.32 302C79.44 283.48 93.96 287.87 108.1 291.47C119.35 294.34 131.49 296.2 129.59 311.3C127.09 331.08 108.78 325.52 95.33 322.32C86.42 320.21 77.12 318.36 75.2 308ZM515.5 328C516.67 328.5 517.83 329 519 329.5C517.92 332.92 517.46 332.19 514 331.5C514.5 330.33 515 329.17 515.5 328ZM529 330.87C526 330.87 523 330.87 520 330.87C520.38 330.41 520.23 329.57 520.72 329.22C521.32 328.78 528.24 330.61 529 330.87ZM599 337.5C596.42 337.85 596.21 337.81 595 335.5C597.58 335.15 597.79 335.19 599 337.5ZM450 339.5C449.53 339.16 448.66 337.9 448 337.56C447.41 337.26 441.69 337.84 440 337.5C443.02 336.9 451.67 334.04 450 339.5ZM386 344.21C384.83 344.8 383.67 345.4 382.5 346C382 345.4 381.5 344.8 381 344.21C382.67 344.21 384.33 344.21 386 344.21ZM532.15 354.83C530.43 354.54 528.72 354.24 527 353.94C524.55 354.48 526.07 353.72 523.7 355.5C526.82 357.55 526.93 358.41 527.5 362C529.61 360.47 529.66 360.07 529.5 357.29C533.01 357.23 532.78 357.75 533.5 361.16C533.89 358.28 534.85 356.3 532.15 354.83ZM718.03 359.09C713.08 361.57 708.45 364 704.95 368.43C694.13 382.17 693.73 411.91 707.74 423.73C711.71 427.08 716.27 427.81 721.17 428.89C721.28 429.09 721.39 429.3 721.5 429.5C722.83 429.55 724.17 429.59 725.5 429.64C725.66 429.37 725.82 429.09 725.98 428.82C726.66 428.64 727.33 428.45 728 428.27C728.17 428.58 728.33 428.89 728.5 429.21C729.83 428.78 731.17 428.35 732.5 427.92C732.63 427.57 732.76 427.22 732.89 426.87C742.54 419.95 745.37 409.22 748.68 398.25C750.47 392.33 751.44 384.5 758 382.08C758.17 382.36 758.33 382.65 758.5 382.93C760.38 382.9 762.27 382.88 764.15 382.86C766.66 384.32 767.64 386.31 768.68 389C768.38 389.17 768.09 389.33 767.79 389.5C768.21 390.96 768.64 392.43 769.07 393.89C769.42 402.46 765.23 406.47 758.34 410.5C758.46 416.17 758.58 421.83 758.7 427.5C761.96 428.04 764.37 427.32 767.42 425.89C778.64 420.62 781.71 409.26 783.98 398.09C785.38 395.47 785.4 392.43 784.02 389.83C781.74 375.88 778.18 368.81 764.93 363.16C764.79 362.87 764.64 362.58 764.5 362.28C761.5 362.21 758.5 362.14 755.5 362.08C755.31 362.4 755.11 362.73 754.92 363.06C737.72 368.45 738 380.5 732.09 395.02C731.8 395.18 731.5 395.34 731.21 395.5C730.47 398.31 729.74 401.13 729 403.94C727.98 405.27 726.96 406.59 725.94 407.91C722.92 407.98 719.89 408.05 716.87 408.12C713.86 406.32 712.99 403.34 712.24 400C712.55 399.83 712.85 399.67 713.16 399.5C713.2 396.17 713.25 392.83 713.3 389.5C712.99 389.33 712.68 389.17 712.38 389C714.29 381.93 718.32 380 724.11 376.5C724.42 372.65 724.74 368.8 725.05 364.96C725.25 364.8 725.44 364.65 725.64 364.5C725.59 362.83 725.55 361.17 725.5 359.5C725.28 359.44 725.07 359.37 724.85 359.31C724.73 358.86 724.62 358.42 724.5 357.97C721.85 357.74 720.17 357.55 718.03 359.09ZM522.17 360C522.17 362 522.17 364 522.17 366C522.5 365.6 523.16 365.63 523.57 365.31C525.52 363.79 523.02 361.23 522.17 360ZM496.07 372.83C496.21 373.25 496.36 373.68 496.5 374.1C498.96 373.69 500.07 373.23 501.87 371.5C501.59 371.29 501.31 371.07 501.03 370.86C502.23 367.55 502.68 364.53 501.5 361.23C494.83 360.82 492.96 367.69 496.07 372.83ZM485.86 372.01C486.2 371.84 486.54 371.67 486.88 371.5C487.24 369.83 487.61 368.17 487.97 366.5C487.68 366.33 487.39 366.17 487.1 366C486.61 364.83 486.13 363.67 485.64 362.5C479.93 362.23 479.11 369.27 480.5 373.58C483.04 373.74 483.93 373.75 485.86 372.01ZM55.87 364.09C55.17 365.39 54.47 366.7 53.77 368C53.46 368.17 53.15 368.33 52.84 368.5C53.03 372.17 53.23 375.83 53.43 379.5C53.67 379.66 53.91 379.81 54.14 379.97C54.32 381.31 54.5 382.66 54.68 384C54.36 384.17 54.04 384.33 53.72 384.5C53.97 387.83 54.23 391.17 54.48 394.5C54.7 394.63 54.91 394.76 55.13 394.88C55.33 396.92 55.52 398.96 55.72 401C55.4 401.17 55.08 401.33 54.76 401.5C55.18 404.35 55.61 407.19 56.03 410.04C56.23 411.69 56.42 413.35 56.62 415C56.31 415.17 56 415.33 55.69 415.5C56.14 419.02 56.59 422.54 57.04 426.06C57.53 428.58 58.01 431.11 58.5 433.64C63.29 434.49 68.57 434.43 73.11 432.5C73.13 429.67 73.14 426.83 73.16 424C73.48 423.83 73.79 423.67 74.11 423.5C73.95 421.83 73.8 420.17 73.64 418.5C73.39 418.33 73.14 418.15 72.89 417.98C72.64 415.65 72.39 413.33 72.14 411C72.59 410.39 73.05 409.79 73.5 409.18C75.17 408.96 76.83 408.74 78.5 408.52C78.64 408.29 78.77 408.06 78.91 407.82C87.61 407.01 96.3 406.19 105 405.37C105.17 405.69 105.33 406.01 105.5 406.33C107.83 406.14 110.17 405.94 112.5 405.75C112.69 405.48 112.89 405.21 113.08 404.94C120.63 403.49 130.77 405.54 137.5 401.88C138.47 396.96 138.05 389.05 136 384.5C129.39 382.9 109.86 386 102 386.76C101.83 386.44 101.67 386.12 101.5 385.79C100.17 386.02 98.83 386.24 97.5 386.46C97.38 386.68 97.26 386.9 97.14 387.12C91.39 388.41 75.84 390.03 70.64 388.5C70.36 383.46 70.09 378.42 69.82 373.38C69.85 370.75 69.87 368.13 69.9 365.5C69.58 365.29 69.27 365.08 68.96 364.87C68.88 364.66 68.8 364.45 68.73 364.24C68.65 363.81 68.58 363.38 68.5 362.96C67.17 362.87 65.83 362.78 64.5 362.7C64.33 363.02 64.17 363.34 64 363.67C63.33 363.69 62.67 363.71 62 363.73C61.83 363.42 61.67 363.1 61.5 362.79C59.83 362.85 58.17 362.91 56.5 362.97C56.29 363.34 56.08 363.72 55.87 364.09ZM471.06 364.5C465.48 364.15 464.35 369.86 465.5 374.53C466.66 374.79 467.2 375.35 468.47 375.21C472.65 374.75 472.07 366.93 471.06 364.5ZM528.99 364C528.55 364.6 527.71 364.85 527.34 365.5C527.12 365.88 526.64 378.4 526.66 378.44C527.42 379.78 527.84 378.98 528.99 379.5C528.99 374.33 528.99 369.17 528.99 364ZM456.89 374.94C457.3 374.79 457.71 374.65 458.12 374.5C458.48 372.83 458.85 371.17 459.21 369.5C458.88 369.33 458.54 369.17 458.21 369C457.97 367.93 457.74 366.86 457.5 365.79C451.41 364.34 449.59 373.18 453.5 376.46C454.63 375.96 455.76 375.45 456.89 374.94ZM523.88 370C523.32 370.64 522.29 370.81 521.84 371.53C521.25 372.47 521.25 378.67 522.18 379.47C522.64 379.85 523.36 379.71 523.88 380C523.88 376.67 523.88 373.33 523.88 370ZM356.93 445.86C356.64 446.07 356.35 446.29 356.05 446.5C356.13 449.17 356.2 451.83 356.28 454.5C356.59 454.56 356.9 454.63 357.22 454.69C359.73 459.45 362.08 464.1 367.74 465.7C378.02 468.61 387.78 459.91 387.61 449.53C387.42 438.01 375.24 429.69 364.79 435.3C360.4 437.65 358.6 441.42 356.93 445.86ZM604.6 479.5C597.56 477.13 576.88 478.63 568.5 478.86C546.46 479.47 524.54 478.71 502.5 478.74C445.5 478.83 388.48 478.95 331.5 478.96C313.17 478.97 294.83 478.75 276.5 478.76C268.24 478.76 256.94 477.37 249.27 479.5C250.43 480.37 249 480.63 250.33 481.08C252.05 481.66 250.12 478.92 253 481.5C252.48 481.83 251.34 482.01 251.11 482.69C250.7 483.9 252.58 485.18 253.03 486.13C254.31 488.76 255.06 491.55 256.5 494.15C264.56 495.47 273.33 494.37 281.5 494.42C299.17 494.52 316.83 494.63 334.5 494.63C384.48 494.65 434.53 495.17 484.5 494.36C513.82 493.88 543.17 494.65 572.5 494.35C583.25 494.25 599.47 495.77 609.45 493.5C607.83 488.83 606.21 484.17 604.6 479.5ZM507 480.5C493.67 480.5 480.33 480.5 467 480.5C480.33 480.5 493.67 480.5 507 480.5Z" fill="#fdfdfd" fill-rule="evenodd" stroke="#fdfdfd" stroke-width="0.25" stroke-linejoin="round"/>
<path d="M370 13.17C370.84 13.61 371.68 14.06 372.51 14.5C373.01 17.65 373.5 20.8 373.99 23.95C374.02 25.8 374.04 27.65 374.07 29.5C374.29 29.67 374.52 29.83 374.74 30C375.45 37.35 376.15 44.71 376.86 52.06C377.01 54.37 377.15 56.69 377.3 59C377.83 64.04 378.36 69.08 378.89 74.12C379.09 76.12 379.3 78.13 379.5 80.13C386 79.63 392.5 79.13 399 78.63C399.96 78.45 400.92 78.26 401.89 78.08C403.92 77.95 405.96 77.82 408 77.69C411.45 77.63 414.91 77.56 418.36 77.5C419.06 81.83 419.75 86.17 420.45 90.5C417.15 92.99 412.64 92.7 408.5 93.17C400.73 94.04 392.56 94.32 384.92 95.89C382.95 96.02 380.97 96.14 379 96.27C377.69 96.47 376.39 96.67 375.08 96.87C372.39 97 369.69 97.12 367 97.24C360.3 97.24 362.08 93.12 361.13 87.95C360.99 86.3 360.84 84.65 360.7 83C360.52 82.01 360.34 81.01 360.17 80.02C360.05 78.34 359.94 76.67 359.82 75C359.62 73.59 359.43 72.17 359.23 70.76C359.09 68.84 358.95 66.92 358.8 65C357.9 56.65 356.99 48.3 356.08 39.95C355.99 37.47 355.9 34.98 355.8 32.5C355.6 32.33 355.39 32.17 355.18 32C355.35 26.72 353.31 20.44 355.26 15.5C357.18 15.04 359.1 14.58 361.02 14.12C364.01 13.8 367.01 13.48 370 13.17ZM473 13.71C476.33 14.33 479.67 14.95 483 15.57C485.52 16.21 488.04 16.86 490.56 17.5C495.87 45.85 501.19 74.21 506.5 102.56C501.82 105.17 493.04 102.71 488.16 100.72C487.47 96.79 486.78 92.85 486.09 88.92C485.86 87.44 485.62 85.97 485.38 84.5C481.92 83.76 478.46 83.02 475 82.28C473.46 82.16 471.92 82.03 470.37 81.91C468.64 81.55 466.91 81.2 465.18 80.84C463.12 80.54 461.06 80.25 458.99 79.95C458.83 79.73 458.66 79.51 458.5 79.28C456.17 79.15 453.83 79.02 451.5 78.88C451.29 79.53 451.07 80.17 450.86 80.82C448.13 85.04 445.41 89.27 442.69 93.5C437.67 93.5 429.75 93.02 426.06 89.5C427.92 83.1 432.56 77.13 435.88 71.35C442.67 59.54 449.84 47.9 456.49 36.01C459.68 30.31 465.73 17.1 470.5 13.62C471.33 13.65 472.17 13.68 473 13.71ZM298 31.12C302.96 31.14 307.92 31.15 312.87 31.17C316.26 32.83 319.57 34.34 322.37 37C332.29 46.45 335.38 63.45 325.65 74.16C318.59 81.94 309.4 83.06 300.73 87.84C298.78 88.55 296.82 89.25 294.87 89.96C293.69 92.71 295.62 95.86 296.78 98.67C299.27 104.7 302.63 111.02 303.56 117.5C299.6 121.07 291.71 123.93 286.5 123.86C277.17 98.4 267.83 72.94 258.5 47.48C261.66 42.41 270.66 41.62 275.96 39.11C277.65 38.42 279.33 37.73 281.01 37.03C286.67 35.06 292.34 33.09 298 31.12ZM474.82 36.85C473.89 38.51 472.95 40.16 472.02 41.82C471.3 43.15 470.58 44.49 469.86 45.83C466.42 52.05 462.97 58.28 459.52 64.5C463.68 65.26 467.84 66.01 472 66.77C475 67.25 478.01 67.72 481.01 68.2C481.52 68.3 482.03 68.4 482.55 68.5C483.17 64.5 482.27 59.97 481.12 55.97C481.05 54.48 480.98 52.99 480.91 51.5C480.68 51.33 480.45 51.17 480.23 51C479.49 46.37 478.75 41.74 478.02 37.11C477.84 36.04 477.67 34.98 477.5 33.91C475.4 34.75 475.37 34.55 474.82 36.85ZM573.93 96.04C574.12 98.44 574.31 100.85 574.5 103.26C575.41 101.99 576.32 100.73 577.24 99.47C583.07 90.67 587.72 80.37 592.39 70.89C594.34 66.92 596.15 61.82 599.5 58.97C604.22 59.68 610.95 62.8 614.07 66.5C601.54 90.53 589.02 114.56 576.5 138.58C573.17 138.53 563.03 134.33 561.23 131.25C560.53 130.05 560.48 128.37 560.16 127.03C560.02 123.02 559.88 119.01 559.73 115C559.21 109.67 558.69 104.34 558.16 99.02C558.07 97.34 557.98 95.67 557.89 94C557.54 89 557.19 84 556.83 79C556.98 76.32 557.05 74.89 555.5 72.85C554.25 75.09 553 77.33 551.76 79.58C545.34 91.7 538.92 103.82 532.5 115.94C527.31 115.71 520.79 112.24 517.11 108.5C518.29 101.98 523.27 95.74 526.36 89.84C532.65 77.83 538.95 65.83 545.37 53.88C548.34 48.35 550.68 39.87 555.5 35.92C558.9 36.8 568.23 40.53 569.92 43.67C571.83 47.21 571.08 56.31 571.29 60.5C571.87 72.25 572.39 84.38 573.93 96.04ZM285.02 51.9C283.53 52.43 282.05 52.97 280.56 53.5C280.99 54.71 281.43 55.92 281.86 57.13C284.07 63.34 286.29 69.54 288.5 75.74C293.89 74.97 308.15 70.29 311.12 65.63C314.99 59.53 311.63 49.1 304.34 47.26C298.53 45.8 289.91 48.66 285.02 51.9ZM649.84 157.78C648.88 159.71 648.1 160.94 649.5 162.78C650 162.16 650.5 161.53 651 160.91C659.4 154.64 667.04 144.56 674.47 136.97C677.93 133.44 681.01 128.88 685.5 126.76C689.32 130.34 693.15 133.92 696.97 137.5C695.81 143.7 681.7 154.1 677.13 160.02C675.36 161.92 673.59 163.83 671.82 165.74C661.05 176.2 650.27 186.67 639.5 197.13C636.17 196.18 627.91 189.03 627.3 185.37C626.62 181.27 630.22 171.88 631.32 167.58C634.47 155.23 637.84 142.52 640.05 129.98C640.2 129.04 640.35 128.1 640.5 127.15C639.67 127.79 638.84 128.42 638.01 129.06C636.05 131 634.09 132.95 632.14 134.89C630.33 136.77 628.53 138.64 626.72 140.51C626.35 140.92 625.98 141.32 625.61 141.73C623.33 144.03 621.04 146.32 618.76 148.62C613.51 152.79 609.66 159.65 603.5 162.38C602.33 161.6 601.16 160.82 599.98 160.04C598.96 158.98 597.93 157.92 596.91 156.86C594.83 154.37 592.84 152.71 592.13 149.5C595.18 145.95 598.86 143 602.12 139.64C612.31 129.15 622.84 119 633.17 108.66C637.74 104.09 644.67 94.39 650.5 92.58C654.2 95.89 657.89 99.19 661.59 102.5C662.09 108.54 659.61 114.7 658.13 120.55C655.07 132.68 651.42 145.38 649.84 157.78ZM216.5 134C225.14 136.89 243.58 141.04 250.31 145.5C248.86 150.86 241.94 155.49 237.5 158.84C225.91 157.71 215.24 148.7 203.5 148.48C200.58 151.49 197.67 154.49 194.75 157.5C201.09 164.83 207.43 172.17 213.77 179.5C211.47 183.8 205.11 189.82 200.5 191.19C195.19 187.31 190.73 181.09 186.41 176.09C178.69 167.17 170.75 158.39 162.73 149.75C158.01 144.67 149.08 136.86 146.93 130.5C149.33 126.07 154.36 122.96 158.09 119.58C166.21 112.2 177.02 100.26 187.74 97.37C201.71 93.6 216.89 104.02 218.89 118.5C219.69 124.31 217.41 128.54 216.5 134ZM173.66 125.78C170.52 127.26 169.01 129.6 172.11 132.13C176.24 136.67 180.37 141.2 184.5 145.74C187.36 144.54 189.4 142.29 191.73 140.22C197.71 134.89 205.5 128.33 199.81 119.7C191.88 107.67 179.92 118.38 173.66 125.78ZM145.87 237.11C149.05 238.31 152.65 237.56 155.11 235.14C163.73 230 165.97 217.05 158.24 210.27C155.13 207.54 151.47 205.74 148.02 203.49C139.1 197.68 129.82 192.42 120.89 186.63C117.17 184.22 112.22 182.34 109.95 178.5C111.48 173.76 114.79 168.02 118.5 164.67C125.98 166.52 137.39 174.89 144.35 179.15C159.85 188.63 179.27 195.47 179.91 216.5C180.01 219.94 179.58 223.05 178.65 226.35C177.42 230.71 175.62 234.87 173.31 238.78C171.29 242.19 168.7 245.59 165.92 248.41C147.55 266.99 123.24 247.57 106.43 237.01C99.97 232.95 89.3 228.2 84.64 222.5C86.05 217.39 89.33 211.23 93.5 207.86C98.7 208.94 103.47 212.59 107.88 215.53C114.77 220.11 122.16 223.9 129.09 228.44C134.31 231.86 139.56 236.23 145.87 237.11ZM689.85 214.15C689.73 213.84 689.62 213.54 689.5 213.23C688.3 213.77 687.09 214.31 685.89 214.85C681.57 217.4 677.25 219.95 672.94 222.5C679.24 234.5 685.55 246.5 691.86 258.5C689.62 262.33 684.67 264.89 680.5 266.15C676.13 263.71 674.84 258.07 672.06 254.06C671.09 252.33 670.11 250.61 669.14 248.88C663.12 237.09 657.1 225.29 651.08 213.5C654.55 209.01 662.05 206.29 667.02 203.5C679.18 196.68 691.27 189.68 703.51 183C709.21 179.9 716.09 173.74 722.5 173.23C725.58 176.47 727.37 181.05 729.56 184.94C734.13 193.05 738.73 201.13 743.25 209.27C745.89 214.04 750.04 219.15 750.9 224.5C747.91 227.67 743.66 230.11 739.5 231.32C735.85 228.98 734.25 224.11 732.23 220.29C729.26 214.64 722.34 200.51 718.53 196.5C713.12 199.5 707.71 202.5 702.29 205.5C708.04 216.5 713.79 227.5 719.53 238.5C716.47 241.87 711.99 244.49 707.5 244.89C701.62 234.64 695.73 224.4 689.85 214.15ZM248 258.72C250.33 258.73 252.67 258.74 255 258.76C262.18 261.91 263.48 271.23 268.97 276.09C269.59 277.1 270.21 278.11 270.83 279.11C271.85 280.79 272.87 282.47 273.89 284.15C274.51 285.19 275.13 286.23 275.75 287.26C277.15 289.53 278.55 291.8 279.96 294.07C280.96 295.74 281.97 297.4 282.98 299.06C283.96 300.74 284.95 302.43 285.93 304.11C286.57 305.1 287.21 306.09 287.85 307.08C288.86 308.76 289.88 310.44 290.89 312.12C294.22 317.72 297.55 323.31 300.89 328.91C301.9 330.64 302.91 332.37 303.92 334.11C304.89 335.48 305.86 336.85 306.84 338.22C308.04 341.62 311.81 344.81 315.16 346.06C318.06 347.41 320.96 348.77 323.86 350.12C324.77 350.58 325.68 351.04 326.59 351.5C323.02 355.69 314.48 354.9 309.8 357.99C309.2 358.15 308.6 358.3 308 358.46C306.22 359.26 304.44 360.07 302.66 360.87C300.73 361.32 298.79 361.77 296.85 362.23C294.93 359.57 293.01 356.91 291.09 354.25C290.27 351.13 288.74 347.65 286.2 345.72C285.19 344.11 284.18 342.51 283.17 340.9C282.61 337.63 280.46 334.1 277.98 332.03C277.04 330.34 276.09 328.66 275.14 326.98C274.78 326.38 274.42 325.78 274.06 325.17C273.06 323.42 272.06 321.66 271.07 319.9C269.11 315.21 260.38 300.61 256.62 298.05C255.79 296.41 254.95 294.77 254.12 293.13C253.32 286.94 250.61 274.95 247 270C246.5 269.08 246 268.15 245.5 267.22C240.51 266.91 235.5 266.81 230.5 266.59C228.73 266.52 225.22 266.8 223.76 265.67C222.6 264.77 222.51 261.9 222.13 260.5C230.75 259.91 239.38 259.31 248 258.72ZM759.88 262.97C761.91 262.99 763.94 263.01 765.97 263.03C767.99 268.32 768.9 273.95 770.21 279.44C773.71 294.02 780.67 313.01 769.47 325.96C765.41 330.66 759.88 332.16 754.19 333.84C751.16 333.88 748.12 333.92 745.09 333.95C739.31 331.87 735.66 329.83 731.12 325.7C730.25 325.06 729.37 324.41 728.5 323.77C727.96 324.45 727.41 325.14 726.87 325.82C718.75 333.2 710.62 340.59 702.5 347.97C701.38 347.57 700.25 347.17 699.13 346.77C698.8 345.15 698.46 343.54 698.13 341.93C697.77 338.26 695.85 333.28 697.25 329.73C698.18 327.36 701.88 324.92 703.75 323.24C709.73 317.88 717.36 312.9 722.17 306.5C721 301.83 719.82 297.17 718.64 292.5C708.91 292.82 699.24 298.81 689.5 297.64C688.24 292.26 686.98 286.88 685.72 281.5C691.11 277.54 703.65 276.25 710.48 274.86C720.98 272.73 731.3 269.74 741.76 267.4C747.81 266.05 754.03 265.04 759.88 262.97ZM111.11 272.04C112.74 272.39 114.37 272.74 116 273.09C123.07 275.65 129.91 276.45 135.71 281.8C151.35 296.22 147.22 328.76 129.8 340.35C119.8 347 108.22 344.92 97.28 342.34C78.3 337.86 66.69 336.33 60.12 315.94C60.1 310.59 60.09 305.23 60.07 299.87C61.45 296.33 61.94 292.48 63.46 288.93C68.63 276.82 78.83 268.16 92.5 268.77C98.86 269.05 104.89 270.97 111.11 272.04ZM750.93 284.91C746.86 285.89 742.79 286.86 738.73 287.83C737.26 288.06 735.79 288.28 734.33 288.5C734.26 289.33 734.2 290.17 734.14 291C735.06 297.19 735.48 305.06 739.08 310.39C743.74 317.27 756.14 317.5 759.49 309.02C762.08 302.44 758.85 292.54 756.99 286.02C756.83 285.28 756.66 284.54 756.5 283.8C754.64 284.17 752.79 284.54 750.93 284.91ZM75.32 302C75.28 304 75.24 306 75.2 308C77.12 318.36 86.42 320.21 95.33 322.32C108.78 325.52 127.09 331.08 129.59 311.3C131.49 296.2 119.35 294.34 108.1 291.47C93.96 287.87 79.44 283.48 75.32 302ZM527 353.94C528.72 354.24 530.43 354.54 532.15 354.83C530.6 354.89 529.05 354.94 527.5 355C527.33 354.65 527.17 354.29 527 353.94ZM606 355.69C610.64 355.85 615.28 356 619.92 356.16C623.53 360.53 627.15 364.89 630.77 369.26C630.85 370.01 630.92 370.75 631 371.5C630.68 371.58 630.36 371.66 630.04 371.74C627.36 371.56 624.68 371.38 622 371.2C620.33 371.2 618.67 371.21 617 371.22C600.51 371.26 583.99 371.07 567.5 371.43C562.43 371.55 552.73 372.63 551.84 365.5C550.89 357.9 557.54 355.56 563.62 355.47C577.74 355.27 591.88 355.42 606 355.69ZM718.03 359.09C720.31 359.17 722.58 359.24 724.85 359.31C724.92 361.19 724.98 363.07 725.05 364.96C724.74 368.8 724.42 372.65 724.11 376.5C718.32 380 714.29 381.93 712.38 389C712.33 392.67 712.29 396.33 712.24 400C712.99 403.34 713.86 406.32 716.87 408.12C719.66 410.37 723.25 410.41 725.94 407.91C726.96 406.59 727.98 405.27 729 403.94C730.03 400.97 731.06 398 732.09 395.02C738 380.5 737.72 368.45 754.92 363.06C758.26 363.09 761.59 363.13 764.93 363.16C778.18 368.81 781.74 375.88 784.02 389.83C784 392.58 783.99 395.34 783.98 398.09C781.71 409.26 778.64 420.62 767.42 425.89C764.37 427.32 761.96 428.04 758.7 427.5C758.58 421.83 758.46 416.17 758.34 410.5C765.23 406.47 769.42 402.46 769.07 393.89C768.94 392.26 768.81 390.63 768.68 389C767.64 386.31 766.66 384.32 764.15 382.86C762.02 381.55 760.53 381.59 758 382.08C751.44 384.5 750.47 392.33 748.68 398.25C745.37 409.22 742.54 419.95 732.89 426.87C731.26 427.34 729.63 427.8 728 428.27C727.33 428.45 726.66 428.64 725.98 428.82C724.38 428.84 722.77 428.87 721.17 428.89C716.27 427.81 711.71 427.08 707.74 423.73C693.73 411.91 694.13 382.17 704.95 368.43C708.45 364 713.08 361.57 718.03 359.09ZM501.03 370.86C499.38 371.51 497.73 372.17 496.07 372.83C492.96 367.69 494.83 360.82 501.5 361.23C502.68 364.53 502.23 367.55 501.03 370.86ZM487.1 366C486.68 368 486.27 370.01 485.86 372.01C483.93 373.75 483.04 373.74 480.5 373.58C479.11 369.27 479.93 362.23 485.64 362.5C486.13 363.67 486.61 364.83 487.1 366ZM55.87 364.09C57.91 363.97 59.96 363.85 62 363.73C62.67 363.71 63.33 363.69 64 363.67C65.58 363.86 67.15 364.05 68.73 364.24C68.8 364.45 68.88 364.66 68.96 364.87C69.25 367.7 69.53 370.54 69.82 373.38C70.09 378.42 70.36 383.46 70.64 388.5C75.84 390.03 91.39 388.41 97.14 387.12C98.76 387 100.38 386.88 102 386.76C109.86 386 129.39 382.9 136 384.5C138.05 389.05 138.47 396.96 137.5 401.88C130.77 405.54 120.63 403.49 113.08 404.94C110.39 405.09 107.69 405.23 105 405.37C96.3 406.19 87.61 407.01 78.91 407.82C76.62 408.05 74.32 408.27 72.02 408.5C72.06 409.33 72.1 410.17 72.14 411C72.39 413.33 72.64 415.65 72.89 417.98C72.98 419.99 73.07 421.99 73.16 424C73.14 426.83 73.13 429.67 73.11 432.5C68.57 434.43 63.29 434.49 58.5 433.64C58.01 431.11 57.53 428.58 57.04 426.06C56.9 422.37 56.76 418.69 56.62 415C56.42 413.35 56.23 411.69 56.03 410.04C55.93 407.03 55.82 404.01 55.72 401C55.52 398.96 55.33 396.92 55.13 394.88C54.98 391.26 54.83 387.63 54.68 384C54.5 382.66 54.32 381.31 54.14 379.97C54.02 375.98 53.89 371.99 53.77 368C54.47 366.7 55.17 365.39 55.87 364.09ZM471.06 364.5C472.07 366.93 472.65 374.75 468.47 375.21C467.2 375.35 466.66 374.79 465.5 374.53C464.35 369.86 465.48 364.15 471.06 364.5ZM458.21 369C457.77 370.98 457.33 372.96 456.89 374.94C455.76 375.45 454.63 375.96 453.5 376.46C449.59 373.18 451.41 364.34 457.5 365.79C457.74 366.86 457.97 367.93 458.21 369ZM442.16 377.34C441.01 377.4 439.85 377.46 438.7 377.51C437.06 372.9 438.34 367.73 443.5 367.12C444.81 370.82 444.47 374.06 442.16 377.34ZM429.97 377.2C428.22 378.67 427.15 378.74 425.02 378.04C425.41 375.11 425.8 372.18 426.19 369.25C427.69 369 429.19 368.75 430.69 368.5C431.85 371.67 431.4 374.1 429.97 377.2ZM275.8 369.12C277.7 369.17 279.6 369.22 281.5 369.27C287.26 375.58 289.03 384.94 296.82 389.65C304.36 394.22 312.4 394.92 320.84 396.54C333.14 398.89 345.62 400.38 357.97 402.53C402.62 410.28 447.69 416.67 492.51 423.83C509.17 426.5 525.91 428.94 542.56 431.72C548.39 432.7 557.63 432.38 562.09 436.12C561.06 436.19 560.03 436.27 559 436.35C551 436.64 543 436.93 535 437.23C533.67 437.25 532.33 437.28 531 437.3C525.33 437.31 519.67 437.32 514 437.33C512.67 437.35 511.33 437.37 510 437.38C506.5 437.32 503 437.26 499.5 437.19C499.33 437.4 499.17 437.6 499 437.81C493.83 436.79 485.45 443.66 480.29 445.74C466.59 451.26 452.52 453.13 438 454.99C434.29 454.98 430.58 454.96 426.87 454.95C416.75 453.2 406.62 451.44 396.5 449.69C394.46 444.48 394.41 438.98 390.14 434.84C388.82 433.48 387.5 432.11 386.19 430.74C377.13 422.4 358.37 423.78 352.94 435.85C349.22 438.69 348.71 443.99 348.32 448.5C348.51 448.7 348.7 448.9 348.89 449.1C348.91 449.36 348.93 449.63 348.95 449.89C349.09 452.09 349.23 454.3 349.37 456.5C349.56 456.64 349.76 456.78 349.96 456.93C352.93 468.29 362.73 472.77 373.4 474.5C371.89 474.97 370.39 475.45 368.89 475.92C361.54 475.59 354.18 475.26 346.83 474.92C338.22 470.77 333.06 465.54 330.92 456C331.32 452.56 331.71 449.11 332.1 445.67C332.76 444.14 333.42 442.62 334.08 441.09C334.89 439.89 335.69 438.69 336.5 437.48C333 437.31 329.49 437.14 325.99 436.97C321.66 436.74 317.33 436.5 313 436.27C307.29 436.13 301.59 435.99 295.88 435.84C293.25 435.66 290.63 435.47 288 435.29C281.01 435.14 274.03 434.99 267.04 434.84C261.69 434.64 256.35 434.44 251 434.24C244.28 434.15 237.57 434.06 230.85 433.97C223.57 433.69 216.28 433.42 209 433.14C205.29 433.08 201.58 433.02 197.87 432.97C192.58 432.73 187.29 432.5 182 432.26C175.45 432.1 168.89 431.95 162.34 431.79C160.89 429.74 160.67 428.48 161.88 426.22C172.59 425.76 183.29 425.29 194 424.83C198.67 424.58 203.33 424.34 208 424.09C213.66 424.01 219.33 423.92 225 423.83C225.67 423.81 226.33 423.8 227 423.78C231.84 424.28 236.67 423.61 241.53 423.47C252.84 423.14 264.18 422.86 275.5 422.81C281.16 422.78 290.17 424.47 294.99 421.83C297.66 421.82 300.33 421.82 303 421.82C312.22 422.8 322.17 421.4 331.5 421.29C353.53 421.05 375.47 420.54 397.5 420.28C405.5 420.19 413.5 419.92 421.5 419.69C424.66 419.59 429.33 420.39 431.77 418.5C429.12 416.3 424.93 417.1 421.5 417.05C413.51 416.92 405.48 417 397.5 417.17C383.96 417.44 370.02 416.27 356.54 417.28C341.33 418.42 318.34 421.8 304.05 417.88C298.7 413.99 293.35 410.09 288 406.2C286.97 405.08 285.94 403.97 284.91 402.86C281.44 397.89 277.97 392.91 274.5 387.94C263.67 386.72 252.83 385.49 242 384.27C240.03 384.16 238.07 384.05 236.1 383.94C231.07 383.37 226.03 382.8 221 382.23C219.31 382.14 217.61 382.06 215.92 381.98C210.61 381.4 205.31 380.82 200 380.24C198.3 380.17 196.6 380.09 194.89 380.01C189.32 379.28 186.58 380.26 187.28 373.5C193.52 373.64 199.76 373.77 206 373.91C208 373.96 210 374.02 212 374.07C212.33 374.07 212.67 374.07 213 374.07C220.99 374.43 228.98 374.8 236.96 375.17C241.64 375.41 246.32 375.64 251 375.88C254 375.93 257 375.97 260 376.02C264.08 376.35 269.38 377.51 272.99 375.5C273.03 375.04 273.06 374.57 273.1 374.11C273.8 372.74 274.5 371.37 275.2 370C275.4 369.71 275.6 369.42 275.8 369.12ZM417.93 369.86C417.91 371.91 417.9 373.97 417.88 376.03C417.69 376.73 417.5 377.44 417.31 378.15C414.87 379.3 414.02 379.15 411.5 378.5C411.43 378.14 411.35 377.79 411.27 377.43C411.62 373.27 412.43 367.38 417.93 369.86ZM403.81 377.99C403.38 378.64 402.94 379.29 402.5 379.93C400.3 379.97 399.71 380.09 397.94 378.8C398.57 374.1 398.71 370.42 404.26 371.5C404.11 373.66 403.96 375.83 403.81 377.99ZM390.9 378.79C389.08 380.47 388.01 380.79 385.5 381.05C385.2 380.26 384.9 379.46 384.59 378.66C384.91 377.05 387.35 368.71 390.48 372.99C391.49 374.36 390.87 377.19 390.9 378.79ZM378.04 379.64C376.18 381.85 375.33 381.76 372.5 381.52C372.25 380.91 372 380.29 371.75 379.67C372.54 375.91 373.85 372.19 378.09 374.5C378.07 376.21 378.06 377.92 378.04 379.64ZM361.18 375.19C361.95 375.19 362.73 375.19 363.5 375.19C364 376.83 364.49 378.47 364.99 380.12C362.65 383.46 360.05 384.33 359.1 379.61C359.79 378.14 360.49 376.66 361.18 375.19ZM352.31 378.64C351.71 380.35 351.1 382.07 350.5 383.79C349.5 383.83 348.5 383.87 347.5 383.91C347.22 382.51 346.95 381.12 346.67 379.72C347.9 376.86 348.43 376.35 351.5 376.09C351.77 376.94 352.04 377.79 352.31 378.64ZM337 376.75C337.5 376.92 338 377.09 338.5 377.25C338.73 377.86 338.96 378.47 339.2 379.08C338.99 380.55 338.77 382.03 338.56 383.5C336.56 384.46 336.56 384.58 334.5 383.8C334.3 382.52 334.11 381.23 333.91 379.95C334.44 379.01 334.97 378.07 335.5 377.14C336 377.01 336.5 376.88 337 376.75ZM326.2 378.94C326.06 382.83 326.49 384.19 322.5 384.63C322.23 383 321.96 381.38 321.69 379.75C322.96 379.2 324.23 378.64 325.5 378.08C325.73 378.36 325.97 378.65 326.2 378.94ZM310.04 378.81C311.34 379.04 312.64 379.27 313.94 379.5C313.91 379.53 313.89 379.57 313.87 379.6C313.56 381.63 313.25 383.65 312.94 385.68C312.13 385.9 311.31 386.12 310.5 386.35C309.96 385.9 309.43 385.45 308.89 385C309.28 382.94 309.66 380.87 310.04 378.81ZM522.5 386.54C525.61 392.28 528.24 388.72 532.3 391.5C529.43 393.51 526.92 393.25 523.5 392.81C522.31 390.45 522.27 389.25 522.5 386.54ZM636.89 427.02C640.59 427.08 644.3 427.13 648 427.18C653 427.35 658 427.51 663 427.67C666.69 427.81 670.38 427.95 674.07 428.09C674.02 429.37 673.98 430.65 673.93 431.92C664.29 432.08 654.64 432.23 645 432.38C637 432.49 629 432.6 621 432.71C621.17 432.25 621.33 431.79 621.5 431.33C626.63 429.89 631.76 428.46 636.89 427.02ZM357.22 454.69C357.12 451.74 357.03 448.8 356.93 445.86C358.6 441.42 360.4 437.65 364.79 435.3C375.24 429.69 387.42 438.01 387.61 449.53C387.78 459.91 378.02 468.61 367.74 465.7C362.08 464.1 359.73 459.45 357.22 454.69ZM563.01 439C565.45 443.45 567.44 447.83 566.51 453.08C563.79 468.4 547.32 470.66 538.16 458.82C537.48 456.16 536.8 453.51 536.12 450.85C537.17 447.31 538.22 443.77 539.26 440.23C540.01 439.7 540.75 439.18 541.5 438.65C548.67 438.77 555.84 438.88 563.01 439ZM514.85 439.2C519.88 439.27 524.91 439.33 529.94 439.39C526.64 451.83 528.68 466.41 541.92 472.13C543.28 472.77 544.64 473.42 546 474.07C546.21 474.21 546.43 474.36 546.64 474.5C545.1 475 543.55 475.51 542 476.01C538.08 475.94 534.15 475.87 530.23 475.8C526.05 474.51 521.99 473.82 518.39 471.09C508.31 463.45 506.71 448.85 514.85 439.2Z" fill="#0f2b4d" fill-rule="evenodd" stroke="#0f2b4d" stroke-width="0.25" stroke-linejoin="round"/>
<path d="M370 13.17C367.01 13.48 364.01 13.8 361.02 14.12C361.18 13.86 361.34 13.61 361.5 13.35C364.33 13.29 367.17 13.23 370 13.17ZM483 15.57C479.67 14.95 476.33 14.33 473 13.71C473.17 13.38 473.33 13.06 473.5 12.73C476.49 13.24 481.04 13.2 483 15.57ZM373.99 23.95C374.24 25.96 374.49 27.98 374.74 30C374.52 29.83 374.29 29.67 374.07 29.5C374.04 27.65 374.02 25.8 373.99 23.95ZM312.87 31.17C307.92 31.15 302.96 31.14 298 31.12C301.73 28.55 308.07 29.53 312.5 30.16C312.62 30.49 312.75 30.83 312.87 31.17ZM355.18 32C355.39 32.17 355.6 32.33 355.8 32.5C355.9 34.98 355.99 37.47 356.08 39.95C355.84 39.8 355.6 39.65 355.36 39.5C355.3 37 355.24 34.5 355.18 32ZM478.02 37.11C477.51 36.77 477.01 36.43 476.5 36.09C475.94 36.34 475.38 36.6 474.82 36.85C475.37 34.55 475.4 34.75 477.5 33.91C477.67 34.98 477.84 36.04 478.02 37.11ZM281.01 37.03C279.33 37.73 277.65 38.42 275.96 39.11C277.63 37.44 278.64 37.16 281.01 37.03ZM472.02 41.82C472.27 42.04 472.52 42.27 472.77 42.5C472.18 43.5 471.59 44.5 471 45.5C470.62 45.61 470.24 45.72 469.86 45.83C470.58 44.49 471.3 43.15 472.02 41.82ZM480.23 51C480.45 51.17 480.68 51.33 480.91 51.5C480.98 52.99 481.05 54.48 481.12 55.97C480.87 55.82 480.62 55.66 480.36 55.5C480.32 54 480.27 52.5 480.23 51ZM285.02 51.9C284.08 52.43 283.13 52.97 282.19 53.5C282.08 54.71 281.97 55.92 281.86 57.13C281.43 55.92 280.99 54.71 280.56 53.5C282.05 52.97 283.53 52.43 285.02 51.9ZM376.86 52.06C377.11 52.21 377.35 52.35 377.59 52.5C377.82 54.5 378.04 56.5 378.26 58.5C377.94 58.67 377.62 58.83 377.3 59C377.15 56.69 377.01 54.37 376.86 52.06ZM358.8 65C358.95 66.92 359.09 68.84 359.23 70.76C358.95 70.67 358.67 70.59 358.39 70.5C358.21 68.83 358.04 67.17 357.87 65.5C358.18 65.33 358.49 65.17 358.8 65ZM481.01 68.2C478.01 67.72 475 67.25 472 66.77C472.17 66.42 472.33 66.07 472.5 65.72C475.17 66.24 477.83 66.76 480.5 67.28C480.67 67.59 480.84 67.89 481.01 68.2ZM556.83 79C556.49 78.83 556.15 78.67 555.8 78.5C555.7 77.39 555.6 76.27 555.5 75.16C554.57 76.6 553.64 78.05 552.71 79.5C552.39 79.53 552.07 79.55 551.76 79.58C553 77.33 554.25 75.09 555.5 72.85C557.05 74.89 556.98 76.32 556.83 79ZM378.89 74.12C379.43 75.75 379.96 77.37 380.5 78.99C384.94 79.11 395.79 76.9 399 78.63C392.5 79.13 386 79.63 379.5 80.13C379.3 78.13 379.09 76.12 378.89 74.12ZM359.82 75C359.94 76.67 360.05 78.34 360.17 80.02C359.89 79.84 359.61 79.67 359.33 79.5C359.18 78.17 359.02 76.83 358.87 75.5C359.19 75.33 359.5 75.17 359.82 75ZM408 77.69C405.96 77.82 403.92 77.95 401.89 78.08C403.76 77.61 405.63 77.15 407.5 76.68C407.67 77.01 407.83 77.35 408 77.69ZM458.99 79.95C456.28 80.24 453.57 80.53 450.86 80.82C451.07 80.17 451.29 79.53 451.5 78.88C453.83 79.02 456.17 79.15 458.5 79.28C458.66 79.51 458.83 79.73 458.99 79.95ZM465.18 80.84C466.91 81.2 468.64 81.55 470.37 81.91C468.75 81.78 467.12 81.64 465.5 81.5C465.39 81.28 465.29 81.06 465.18 80.84ZM470.37 81.91C471.92 82.03 473.46 82.16 475 82.28C474.83 82.57 474.67 82.87 474.5 83.16C473.17 82.97 471.83 82.77 470.5 82.57C470.46 82.35 470.42 82.13 470.37 81.91ZM360.7 83C360.84 84.65 360.99 86.3 361.13 87.95C360.84 87.8 360.54 87.65 360.24 87.5C360.07 86.17 359.89 84.83 359.71 83.5C360.04 83.33 360.37 83.17 360.7 83ZM300.73 87.84C300.66 88.11 300.58 88.37 300.5 88.64C298.62 89.08 296.75 89.52 294.87 89.96C296.82 89.25 298.78 88.55 300.73 87.84ZM486.09 88.92C486.78 92.85 487.47 96.79 488.16 100.72C487.78 100.65 487.4 100.57 487.01 100.5C486.71 96.64 486.4 92.78 486.09 88.92ZM557.89 94C557.98 95.67 558.07 97.34 558.16 99.02C557.89 98.84 557.61 98.67 557.34 98.5C557.23 97.17 557.13 95.83 557.02 94.5C557.31 94.33 557.6 94.17 557.89 94ZM379 96.27C380.97 96.14 382.95 96.02 384.92 95.89C384.78 96.13 384.64 96.37 384.5 96.61C382.83 96.81 381.17 97.01 379.5 97.22C379.33 96.9 379.17 96.59 379 96.27ZM573.93 96.04C574.16 96.19 574.4 96.35 574.63 96.5C574.92 97.92 575.21 99.34 575.5 100.76C576.08 100.33 576.66 99.9 577.24 99.47C576.32 100.73 575.41 101.99 574.5 103.26C574.31 100.85 574.12 98.44 573.93 96.04ZM367 97.24C369.69 97.12 372.39 97 375.08 96.87C374.89 97.14 374.69 97.4 374.5 97.66C372.17 97.83 369.83 98.01 367.5 98.18C367.33 97.87 367.17 97.56 367 97.24ZM559.73 115C559.88 119.01 560.02 123.02 560.16 127.03C559.9 126.86 559.63 126.68 559.37 126.5C559.17 122.83 558.97 119.17 558.77 115.5C559.09 115.33 559.41 115.17 559.73 115ZM173.66 125.78C172.86 127.02 172.05 128.26 171.25 129.5C171.69 130.17 172.12 130.83 172.55 131.5C172.4 131.71 172.26 131.92 172.11 132.13C169.01 129.6 170.52 127.26 173.66 125.78ZM640.05 129.98C639.37 129.67 638.69 129.37 638.01 129.06C638.84 128.42 639.67 127.79 640.5 127.15C640.35 128.1 640.2 129.04 640.05 129.98ZM632.14 134.89C632.45 135.1 632.75 135.3 633.06 135.5C630.95 137.17 628.84 138.84 626.72 140.51C628.53 138.64 630.33 136.77 632.14 134.89ZM625.61 141.73C623.33 144.03 621.04 146.32 618.76 148.62C621.04 146.32 623.33 144.03 625.61 141.73ZM596.91 156.86C597.93 157.92 598.96 158.98 599.98 160.04C599.09 159.52 598.19 159.01 597.3 158.5C597.17 157.95 597.04 157.4 596.91 156.86ZM649.84 157.78C650.06 158.68 650.27 159.59 650.48 160.5C650.66 160.64 650.83 160.77 651 160.91C650.5 161.53 650 162.16 649.5 162.78C648.1 160.94 648.88 159.71 649.84 157.78ZM677.13 160.02C676.11 162.52 674.3 164.6 671.82 165.74C673.59 163.83 675.36 161.92 677.13 160.02ZM689.85 214.15C688.53 214.38 687.21 214.61 685.89 214.85C687.09 214.31 688.3 213.77 689.5 213.23C689.62 213.54 689.73 213.84 689.85 214.15ZM155.11 235.14C152.65 237.56 149.05 238.31 145.87 237.11C148.95 236.45 152.03 235.79 155.11 235.14ZM669.14 248.88C670.11 250.61 671.09 252.33 672.06 254.06C671.09 252.33 670.11 250.61 669.14 248.88ZM248 258.72C239.38 259.31 230.75 259.91 222.13 260.5C222.51 261.9 222.6 264.77 223.76 265.67C225.22 266.8 228.73 266.52 230.5 266.59C235.5 266.81 240.51 266.91 245.5 267.22C246 268.15 246.5 269.08 247 270C234.84 268.84 222.68 267.67 210.52 266.5C211.34 265.3 211.24 266.65 211.75 265.34C211.82 265.18 211.2 259.94 211.09 259.5C219.69 258.12 228.79 258.42 237.5 258.06C240.91 257.92 245.17 256.99 248 258.72ZM268.97 276.09C263.48 271.23 262.18 261.91 255 258.76C255.83 258.54 256.67 258.33 257.5 258.12C261.49 261.43 268.12 271.18 268.97 276.09ZM765.97 263.03C763.94 263.01 761.91 262.99 759.88 262.97C760.09 262.64 760.29 262.32 760.5 261.99C762.17 261.91 763.83 261.83 765.5 261.75C765.66 262.18 765.81 262.61 765.97 263.03ZM247 270C250.61 274.95 253.32 286.94 254.12 293.13C250.95 289.7 246.98 274.98 247 270ZM111.11 272.04C113.32 271.8 114.26 271.82 116 273.09C114.37 272.74 112.74 272.39 111.11 272.04ZM270.83 279.11C273.03 280.43 273.56 281.62 273.89 284.15C272.87 282.47 271.85 280.79 270.83 279.11ZM756.99 286.02C756.5 285.64 756 285.26 755.5 284.87C753.98 284.89 752.45 284.9 750.93 284.91C752.79 284.54 754.64 284.17 756.5 283.8C756.66 284.54 756.83 285.28 756.99 286.02ZM275.75 287.26C276.16 287.34 276.56 287.42 276.97 287.5C277.97 289.69 278.96 291.88 279.96 294.07C278.55 291.8 277.15 289.53 275.75 287.26ZM738.73 287.83C738.65 288.06 738.58 288.29 738.5 288.52C737.5 288.79 736.5 289.05 735.5 289.32C735.05 289.88 734.59 290.44 734.14 291C734.2 290.17 734.26 289.33 734.33 288.5C735.79 288.28 737.26 288.06 738.73 287.83ZM279.96 294.07C280.96 295.74 281.97 297.4 282.98 299.06C281.97 297.4 280.96 295.74 279.96 294.07ZM282.98 299.06C285.04 300.38 285.52 301.75 285.93 304.11C284.95 302.43 283.96 300.74 282.98 299.06ZM60.07 299.87C60.09 305.23 60.1 310.59 60.12 315.94C59.82 315.8 59.52 315.65 59.23 315.5C59.2 310.5 59.18 305.5 59.15 300.5C59.46 300.29 59.77 300.08 60.07 299.87ZM75.32 302C75.62 302.17 75.92 302.33 76.21 302.5C76.15 304.17 76.09 305.83 76.03 307.5C75.76 307.67 75.48 307.83 75.2 308C75.24 306 75.28 304 75.32 302ZM287.85 307.08C289.83 308.43 290.45 309.74 290.89 312.12C289.88 310.44 288.86 308.76 287.85 307.08ZM309.8 357.99C314.48 354.9 323.02 355.69 326.59 351.5C325.68 351.04 324.77 350.58 323.86 350.12C326.08 349.98 328.11 350.61 330.33 350.57C335.01 350.5 339.93 348.93 344.54 348.19C349.83 347.34 355.18 346.64 360.5 345.96C363.92 345.52 370.41 343 372.5 346C375.17 342.35 383.59 343.06 387.97 342.49C396.29 341.4 404.65 340.59 412.98 339.48C417 338.95 421.4 337.79 425.47 337.89C428.5 337.96 431.34 339 434.5 339C433.5 338.36 432.5 337.71 431.5 337.07C443.86 335.87 456.14 333.94 468.5 332.73C473.32 332.26 478.33 330.36 482.5 333C482.47 332.51 482.28 331.46 482.75 331.16C485.13 329.63 494.29 329.44 497.5 329.03C509.74 327.47 523.23 324.98 535.5 324.81C539.73 324.75 542.36 326.43 547 325.5C545.33 325.17 543.67 324.83 542 324.5C556.4 320.66 573.43 323.29 587.15 328.5C586.32 328.76 580.63 329.41 580.44 330.5C580.4 330.74 581.27 331.17 581.28 331.18C581.48 331.54 581.32 332.02 581.5 332.39C558.89 325.67 535.86 331.28 512.98 333.54C487.78 336.04 462.67 339.68 437.53 342.71C423.2 344.44 408.78 345.69 394.5 347.82C394.73 344.59 389.16 346.07 387 346.5C389 346.83 391 347.17 393 347.5C387.46 349.15 381.28 349.39 375.5 349.96C368.83 350.62 362.21 351.68 355.55 352.36C352.99 352.62 344.77 354.5 342.72 353.59C342.32 353.42 342.35 352.76 342 352.5C345 352.17 348 351.83 351 351.5C347.5 351.33 344 351.17 340.5 351C340.17 351.97 339.83 352.95 339.5 353.92C333.7 354.35 327.44 353.97 321.77 355.42C318.14 356.34 313.16 359.53 309.8 357.99ZM731.12 325.7C730.25 325.54 729.37 325.38 728.5 325.22C727.96 325.42 727.41 325.62 726.87 325.82C727.41 325.14 727.96 324.45 728.5 323.77C729.37 324.41 730.25 325.06 731.12 325.7ZM515.5 328C515 329.17 514.5 330.33 514 331.5C517.46 332.19 517.92 332.92 519 329.5C517.83 329 516.67 328.5 515.5 328ZM300.89 328.91C302.88 330.37 303.5 331.68 303.92 334.11C302.91 332.37 301.9 330.64 300.89 328.91ZM529 330.87C528.24 330.61 521.32 328.78 520.72 329.22C520.23 329.57 520.38 330.41 520 330.87C523 330.87 526 330.87 529 330.87ZM619.92 356.16C615.28 356 610.64 355.85 606 355.69C608.11 354.96 610.22 354.23 612.32 353.5C602.79 344.99 593.68 337.57 581.78 332.5C585.63 332.16 588.18 333.42 587.5 328.72C597.57 332.73 605.26 339.05 612.22 347.23C614.73 350.18 618.3 352.75 619.92 356.16ZM745.09 333.95C748.12 333.92 751.16 333.88 754.19 333.84C751.4 335.35 748.67 335.02 745.5 334.62C745.36 334.4 745.22 334.18 745.09 333.95ZM599 337.5C597.79 335.19 597.58 335.15 595 335.5C596.21 337.81 596.42 337.85 599 337.5ZM450 339.5C451.67 334.04 443.02 336.9 440 337.5C441.69 337.84 447.41 337.26 448 337.56C448.66 337.9 449.53 339.16 450 339.5ZM306.84 338.22C309.61 340.84 312.39 343.45 315.16 346.06C311.81 344.81 308.04 341.62 306.84 338.22ZM698.13 341.93C698.46 343.54 698.8 345.15 699.13 346.77C698.88 346.68 698.64 346.59 698.4 346.5C698.31 344.98 698.22 343.45 698.13 341.93ZM386 344.21C384.33 344.21 382.67 344.21 381 344.21C381.5 344.8 382 345.4 382.5 346C383.67 345.4 384.83 344.8 386 344.21ZM527 353.94C527.17 354.29 527.33 354.65 527.5 355C529.05 354.94 530.6 354.89 532.15 354.83C534.85 356.3 533.89 358.28 533.5 361.16C532.78 357.75 533.01 357.23 529.5 357.29C529.66 360.07 529.61 360.47 527.5 362C526.93 358.41 526.82 357.55 523.7 355.5C526.07 353.72 524.55 354.48 527 353.94ZM308 358.46C308.43 358.81 308.87 359.15 309.3 359.5C307.09 359.96 304.88 360.42 302.66 360.87C304.44 360.07 306.22 359.26 308 358.46ZM724.85 359.31C722.58 359.24 720.31 359.17 718.03 359.09C720.17 357.55 721.85 357.74 724.5 357.97C724.62 358.42 724.73 358.86 724.85 359.31ZM724.85 359.31C725.07 359.37 725.28 359.44 725.5 359.5C725.55 361.17 725.59 362.83 725.64 364.5C725.44 364.65 725.25 364.8 725.05 364.96C724.98 363.07 724.92 361.19 724.85 359.31ZM522.17 360C523.02 361.23 525.52 363.79 523.57 365.31C523.16 365.63 522.5 365.6 522.17 366C522.17 364 522.17 362 522.17 360ZM302.66 360.87C302.61 361.18 302.55 361.49 302.5 361.8C300.63 362.7 298.76 363.59 296.89 364.48C296.66 364.16 296.44 363.83 296.21 363.5C296.42 363.08 296.64 362.65 296.85 362.23C298.79 361.77 300.73 361.32 302.66 360.87ZM764.93 363.16C761.59 363.13 758.26 363.09 754.92 363.06C755.11 362.73 755.31 362.4 755.5 362.08C758.5 362.14 761.5 362.21 764.5 362.28C764.64 362.58 764.79 362.87 764.93 363.16ZM62 363.73C59.96 363.85 57.91 363.97 55.87 364.09C56.08 363.72 56.29 363.34 56.5 362.97C58.17 362.91 59.83 362.85 61.5 362.79C61.67 363.1 61.83 363.42 62 363.73ZM68.73 364.24C67.15 364.05 65.58 363.86 64 363.67C64.17 363.34 64.33 363.02 64.5 362.7C65.83 362.78 67.17 362.87 68.5 362.96C68.58 363.38 68.65 363.81 68.73 364.24ZM528.99 364C528.99 369.17 528.99 374.33 528.99 379.5C527.84 378.98 527.42 379.78 526.66 378.44C526.64 378.4 527.12 365.88 527.34 365.5C527.71 364.85 528.55 364.6 528.99 364ZM68.96 364.87C69.27 365.08 69.58 365.29 69.9 365.5C69.87 368.13 69.85 370.75 69.82 373.38C69.53 370.54 69.25 367.7 68.96 364.87ZM487.1 366C487.39 366.17 487.68 366.33 487.97 366.5C487.61 368.17 487.24 369.83 486.88 371.5C486.54 371.67 486.2 371.84 485.86 372.01C486.27 370.01 486.68 368 487.1 366ZM53.77 368C53.89 371.99 54.02 375.98 54.14 379.97C53.91 379.81 53.67 379.66 53.43 379.5C53.23 375.83 53.03 372.17 52.84 368.5C53.15 368.33 53.46 368.17 53.77 368ZM426.19 369.25C425.8 372.18 425.41 375.11 425.02 378.04C424.69 378.06 424.36 378.07 424.03 378.09C423.63 374.9 423.96 372.53 425.04 369.5C425.42 369.42 425.81 369.33 426.19 369.25ZM458.21 369C458.54 369.17 458.88 369.33 459.21 369.5C458.85 371.17 458.48 372.83 458.12 374.5C457.71 374.65 457.3 374.79 456.89 374.94C457.33 372.96 457.77 370.98 458.21 369ZM630.77 369.26C632.69 370.23 633.17 372.01 634.94 373.35C641.34 378.19 647.65 383.68 651.37 390.73C650.13 390.49 648.88 390.25 647.64 390.02C646.57 387.02 643.42 385.49 641.03 383.41C637.14 380.03 633.25 375.64 630.04 371.74C630.36 371.66 630.68 371.58 631 371.5C630.92 370.75 630.85 370.01 630.77 369.26ZM275.2 370C274.5 371.37 273.8 372.74 273.1 374.11C273.13 371.66 273.07 371.21 275.2 370ZM417.93 369.86C418.31 370.07 418.69 370.29 419.08 370.5C419.02 372.17 418.96 373.83 418.9 375.5C418.56 375.68 418.22 375.85 417.88 376.03C417.9 373.97 417.91 371.91 417.93 369.86ZM523.88 370C523.88 373.33 523.88 376.67 523.88 380C523.36 379.71 522.64 379.85 522.18 379.47C521.25 378.67 521.25 372.47 521.84 371.53C522.29 370.81 523.32 370.64 523.88 370ZM501.03 370.86C501.31 371.07 501.59 371.29 501.87 371.5C500.07 373.23 498.96 373.69 496.5 374.1C496.36 373.68 496.21 373.25 496.07 372.83C497.73 372.17 499.38 371.51 501.03 370.86ZM617 371.22C618.67 371.21 620.33 371.2 622 371.2C621.83 371.51 621.67 371.82 621.5 372.13C620.17 372.14 618.83 372.15 617.5 372.16C617.33 371.85 617.17 371.53 617 371.22ZM212 374.07C210 374.02 208 373.96 206 373.91C206.17 373.56 206.33 373.22 206.5 372.87C208.17 372.96 209.83 373.04 211.5 373.13C211.67 373.44 211.83 373.75 212 374.07ZM236.96 375.17C228.98 374.8 220.99 374.43 213 374.07C216.17 372.53 233.84 373.43 236.96 375.17ZM366 379.92C365.66 379.98 365.33 380.05 364.99 380.12C364.49 378.47 364 376.83 363.5 375.19C362.73 375.19 361.95 375.19 361.18 375.19C361.29 374.77 361.39 374.36 361.5 373.95C365.63 374.34 366.08 375.85 366 379.92ZM260 376.02C257 375.97 254 375.93 251 375.88C251.17 375.58 251.33 375.28 251.5 374.99C254.17 375.02 256.83 375.06 259.5 375.09C259.67 375.4 259.83 375.71 260 376.02ZM340.18 379.08C339.85 379.08 339.52 379.08 339.2 379.08C338.96 378.47 338.73 377.86 338.5 377.25C338 377.09 337.5 376.92 337 376.75C337.17 376.41 337.33 376.06 337.5 375.71C339.88 376.78 339.82 376.66 340.18 379.08ZM535 381.81C534.33 381.79 533.67 381.76 533 381.73C533.17 380.49 533.33 379.24 533.5 378C534 379.27 534.5 380.54 535 381.81ZM194.89 380.01C196.6 380.09 198.3 380.17 200 380.24C199.83 380.55 199.67 380.87 199.5 381.18C198.17 381.07 196.83 380.96 195.5 380.85C195.3 380.57 195.1 380.29 194.89 380.01ZM215.92 381.98C217.61 382.06 219.31 382.14 221 382.23C220.83 382.52 220.67 382.82 220.5 383.12C218.97 382.74 217.45 382.36 215.92 381.98ZM758 382.08C760.53 381.59 762.02 381.55 764.15 382.86C762.27 382.88 760.38 382.9 758.5 382.93C758.33 382.65 758.17 382.36 758 382.08ZM54.68 384C54.83 387.63 54.98 391.26 55.13 394.88C54.91 394.76 54.7 394.63 54.48 394.5C54.23 391.17 53.97 387.83 53.72 384.5C54.04 384.33 54.36 384.17 54.68 384ZM236.1 383.94C238.07 384.05 240.03 384.16 242 384.27C241.83 384.59 241.67 384.9 241.5 385.21C239.83 384.99 238.17 384.78 236.5 384.56C236.37 384.35 236.23 384.14 236.1 383.94ZM102 386.76C100.38 386.88 98.76 387 97.14 387.12C97.26 386.9 97.38 386.68 97.5 386.46C98.83 386.24 100.17 386.02 101.5 385.79C101.67 386.12 101.83 386.44 102 386.76ZM712.38 389C712.68 389.17 712.99 389.33 713.3 389.5C713.25 392.83 713.2 396.17 713.16 399.5C712.85 399.67 712.55 399.83 712.24 400C712.29 396.33 712.33 392.67 712.38 389ZM768.68 389C768.81 390.63 768.94 392.26 769.07 393.89C768.64 392.43 768.21 390.96 767.79 389.5C768.09 389.33 768.38 389.17 768.68 389ZM784.02 389.83C785.4 392.43 785.38 395.47 783.98 398.09C783.99 395.34 784 392.58 784.02 389.83ZM732.09 395.02C731.06 398 730.03 400.97 729 403.94C729.74 401.13 730.47 398.31 731.21 395.5C731.5 395.34 731.8 395.18 732.09 395.02ZM55.72 401C55.82 404.01 55.93 407.03 56.03 410.04C55.61 407.19 55.18 404.35 54.76 401.5C55.08 401.33 55.4 401.17 55.72 401ZM284.91 402.86C285.94 403.97 286.97 405.08 288 406.2C286.77 405.3 285.54 404.4 284.31 403.5C284.51 403.29 284.71 403.07 284.91 402.86ZM105 405.37C107.69 405.23 110.39 405.09 113.08 404.94C112.89 405.21 112.69 405.48 112.5 405.75C110.17 405.94 107.83 406.14 105.5 406.33C105.33 406.01 105.17 405.69 105 405.37ZM78.91 407.82C78.77 408.06 78.64 408.29 78.5 408.52C76.83 408.74 75.17 408.96 73.5 409.18C73.05 409.79 72.59 410.39 72.14 411C72.1 410.17 72.06 409.33 72.02 408.5C74.32 408.27 76.62 408.05 78.91 407.82ZM716.87 408.12C719.89 408.05 722.92 407.98 725.94 407.91C723.25 410.41 719.66 410.37 716.87 408.12ZM56.62 415C56.76 418.69 56.9 422.37 57.04 426.06C56.59 422.54 56.14 419.02 55.69 415.5C56 415.33 56.31 415.17 56.62 415ZM303 421.82C303.67 421.38 304.34 420.94 305.01 420.5C304.69 419.63 304.37 418.76 304.05 417.88C318.34 421.8 341.33 418.42 356.54 417.28C370.02 416.27 383.96 417.44 397.5 417.17C405.48 417 413.51 416.92 421.5 417.05C424.93 417.1 429.12 416.3 431.77 418.5C429.33 420.39 424.66 419.59 421.5 419.69C413.5 419.92 405.5 420.19 397.5 420.28C375.47 420.54 353.53 421.05 331.5 421.29C322.17 421.4 312.22 422.8 303 421.82ZM72.89 417.98C73.14 418.15 73.39 418.33 73.64 418.5C73.8 420.17 73.95 421.83 74.11 423.5C73.79 423.67 73.48 423.83 73.16 424C73.07 421.99 72.98 419.99 72.89 417.98ZM294.99 421.83C290.17 424.47 281.16 422.78 275.5 422.81C264.18 422.86 252.84 423.14 241.53 423.47C236.67 423.61 231.84 424.28 227 423.78C230.58 421.3 238.89 422.26 243.5 422.06C255.49 421.56 267.51 421.43 279.5 421.24C284.28 421.17 290.69 419.78 294.99 421.83ZM225 423.83C219.33 423.92 213.66 424.01 208 424.09C208.16 423.88 208.33 423.67 208.5 423.45C213.83 423.23 219.17 423.01 224.5 422.78C224.67 423.13 224.83 423.48 225 423.83ZM194 424.83C183.29 425.29 172.59 425.76 161.88 426.22C162.2 425.95 162.14 425.34 162.51 425.14C164.27 424.17 167.55 424.7 169.5 424.66C175.18 424.55 180.82 424.1 186.5 423.91C189.27 423.82 191.82 423.36 194 424.83ZM638.35 424.99C638.4 425.32 638.45 425.66 638.5 426C641.5 426.05 644.5 426.11 647.5 426.16C647.67 426.5 647.83 426.84 648 427.18C644.3 427.13 640.59 427.08 636.89 427.02C637.38 426.34 637.86 425.66 638.35 424.99ZM674.07 428.09C670.38 427.95 666.69 427.81 663 427.67C663.17 427.28 663.33 426.9 663.5 426.51C666.83 426.6 670.17 426.7 673.5 426.79C673.69 427.22 673.88 427.66 674.07 428.09ZM732.89 426.87C732.76 427.22 732.63 427.57 732.5 427.92C731.17 428.35 729.83 428.78 728.5 429.21C728.33 428.89 728.17 428.58 728 428.27C729.63 427.8 731.26 427.34 732.89 426.87ZM721.17 428.89C722.77 428.87 724.38 428.84 725.98 428.82C725.82 429.09 725.66 429.37 725.5 429.64C724.17 429.59 722.83 429.55 721.5 429.5C721.39 429.3 721.28 429.09 721.17 428.89ZM386.19 430.74C387.5 432.11 388.82 433.48 390.14 434.84C388.82 433.48 387.5 432.11 386.19 430.74ZM162.34 431.79C168.89 431.95 175.45 432.1 182 432.26C179.2 433.9 164.82 433.38 162.34 431.79ZM645 432.38C654.64 432.23 664.29 432.08 673.93 431.92C671.91 433.56 669.36 433.15 666.5 433.15C661.24 433.17 649.11 434.7 645 432.38ZM197.87 432.97C201.58 433.02 205.29 433.08 209 433.14C208.83 433.46 208.67 433.78 208.5 434.11C204.96 433.73 201.41 433.35 197.87 432.97ZM230.85 433.97C237.57 434.06 244.28 434.15 251 434.24C247.9 436.01 234.16 435.4 230.85 433.97ZM267.04 434.84C274.03 434.99 281.01 435.14 288 435.29C285.19 437.03 270.01 436.38 267.04 434.84ZM295.88 435.84C301.59 435.99 307.29 436.13 313 436.27C312.83 436.58 312.67 436.9 312.5 437.22C307.17 437.01 301.83 436.81 296.5 436.61C296.29 436.35 296.09 436.1 295.88 435.84ZM352.94 435.85C351.59 440.26 350.24 444.68 348.89 449.1C348.7 448.9 348.51 448.7 348.32 448.5C348.71 443.99 349.22 438.69 352.94 435.85ZM559 436.35C559.17 436.57 559.33 436.78 559.5 437C560.8 437.17 562.1 437.33 563.4 437.5C563.27 438 563.14 438.5 563.01 439C555.84 438.88 548.67 438.77 541.5 438.65C540.75 439.18 540.01 439.7 539.26 440.23C539.01 439.7 538.75 439.18 538.5 438.65C536.33 438.6 534.17 438.55 532 438.5C533 438.08 534 437.65 535 437.23C543 436.93 551 436.64 559 436.35ZM325.99 436.97C329.49 437.14 333 437.31 336.5 437.48C335.69 438.69 334.89 439.89 334.08 441.09C334.33 440.23 334.58 439.36 334.82 438.5C331.88 437.99 328.93 437.48 325.99 436.97ZM510 437.38C509.83 437.74 509.67 438.1 509.5 438.46C506 438.24 502.5 438.03 499 437.81C499.17 437.6 499.33 437.4 499.5 437.19C503 437.26 506.5 437.32 510 437.38ZM514 437.33C519.67 437.32 525.33 437.31 531 437.3C530.65 438 530.29 438.7 529.94 439.39C524.91 439.33 519.88 439.27 514.85 439.2C514.57 438.58 514.28 437.96 514 437.33ZM332.1 445.67C331.71 449.11 331.32 452.56 330.92 456C330.59 455.83 330.26 455.67 329.93 455.5C330.22 452.5 330.51 449.5 330.8 446.5C331.23 446.22 331.67 445.95 332.1 445.67ZM356.93 445.86C357.03 448.8 357.12 451.74 357.22 454.69C356.9 454.63 356.59 454.56 356.28 454.5C356.2 451.83 356.13 449.17 356.05 446.5C356.35 446.29 356.64 446.07 356.93 445.86ZM348.95 449.89C349.29 452.24 349.63 454.58 349.96 456.93C349.76 456.78 349.56 456.64 349.37 456.5C349.23 454.3 349.09 452.09 348.95 449.89ZM536.12 450.85C536.8 453.51 537.48 456.16 538.16 458.82C537.81 458.71 537.46 458.61 537.11 458.5C536.78 455.95 536.45 453.4 536.12 450.85ZM426.87 454.95C430.58 454.96 434.29 454.98 438 454.99C437.83 455.29 437.67 455.59 437.5 455.89C434.17 455.88 430.83 455.87 427.5 455.86C427.29 455.55 427.08 455.25 426.87 454.95ZM541.92 472.13C543.12 472.33 544.31 472.53 545.5 472.74C545.67 473.18 545.83 473.62 546 474.07C544.64 473.42 543.28 472.77 541.92 472.13ZM346.83 474.92C354.18 475.26 361.54 475.59 368.89 475.92C364.43 478.17 350.74 478.12 346.83 474.92ZM530.23 475.8C534.15 475.87 538.08 475.94 542 476.01C541.83 476.24 541.67 476.46 541.5 476.68C537.83 476.63 534.17 476.59 530.5 476.54C530.41 476.29 530.32 476.04 530.23 475.8ZM604.6 479.5C606.21 484.17 607.83 488.83 609.45 493.5C599.47 495.77 583.25 494.25 572.5 494.35C543.17 494.65 513.82 493.88 484.5 494.36C434.53 495.17 384.48 494.65 334.5 494.63C316.83 494.63 299.17 494.52 281.5 494.42C273.33 494.37 264.56 495.47 256.5 494.15C255.06 491.55 254.31 488.76 253.03 486.13C252.58 485.18 250.7 483.9 251.11 482.69C251.34 482.01 252.48 481.83 253 481.5C250.12 478.92 252.05 481.66 250.33 481.08C249 480.63 250.43 480.37 249.27 479.5C256.94 477.37 268.24 478.76 276.5 478.76C294.83 478.75 313.17 478.97 331.5 478.96C388.48 478.95 445.5 478.83 502.5 478.74C524.54 478.71 546.46 479.47 568.5 478.86C576.88 478.63 597.56 477.13 604.6 479.5ZM507 480.5C493.67 480.5 480.33 480.5 467 480.5C480.33 480.5 493.67 480.5 507 480.5Z" fill="#caccdd" fill-rule="evenodd" stroke="#caccdd" stroke-width="0.25" stroke-linejoin="round"/>
<path d="M256.62 298.05C260.38 300.61 269.11 315.21 271.07 319.9C272.06 321.66 273.06 323.42 274.06 325.17C274.42 325.78 274.78 326.38 275.14 326.98C276.09 328.66 277.04 330.34 277.98 332.03C279.71 334.99 281.44 337.95 283.17 340.9C284.18 342.51 285.19 344.11 286.2 345.72C287.83 348.56 289.46 351.4 291.09 354.25C293.01 356.91 294.93 359.57 296.85 362.23C296.64 362.65 296.42 363.08 296.21 363.5C296.44 363.83 296.66 364.16 296.89 364.48C299.2 372.7 304.11 373.96 310.04 378.81C309.66 380.87 309.28 382.94 308.89 385C303.74 381.92 297.68 380.83 293.59 375.9C289.88 371.42 288.33 364.84 285.9 359.64C284.64 356.95 282.84 354.68 281.43 352.09C279.97 349.44 279.09 346.47 277.75 343.76C275.58 339.35 272.89 335.2 270.64 330.84C267.9 325.56 264.19 315.61 259.74 311.99C257.86 307.66 255.8 302.64 256.62 298.05ZM411.27 377.43C411.35 377.79 411.43 378.14 411.5 378.5C414.02 379.15 414.87 379.3 417.31 378.15C417.38 378.43 417.44 378.72 417.5 379C419.68 378.7 421.85 378.39 424.03 378.09C424.36 378.07 424.69 378.06 425.02 378.04C427.15 378.74 428.22 378.67 429.97 377.2C430.15 377.62 430.32 378.05 430.5 378.47C433 378.48 435.5 378.49 438 378.5C438.23 378.17 438.47 377.84 438.7 377.51C439.85 377.46 441.01 377.4 442.16 377.34C443.44 379.63 446.06 379.12 448.5 379.19C453.83 379.33 459.17 379.34 464.5 379.32C483.88 379.26 503.43 380.59 522.68 381.08C526.06 381.16 529.53 381.76 533 381.73C533.67 381.76 534.33 381.79 535 381.81C572.55 384.55 610.09 387.28 647.64 390.02C648.88 390.25 650.13 390.49 651.37 390.73C657 398 655.59 412.44 647.45 417.27C644.64 415.82 642.7 416.94 639.5 417.22C634.54 417.66 629.47 417.49 624.5 417.29C603.84 416.48 584.32 415.1 563.79 412.54C513.37 406.24 463.09 399.77 412.5 395.04C400.84 393.95 389.16 393.69 377.5 392.75C369.81 392.14 362.17 390.9 354.47 390.35C340.38 389.32 326.79 388.43 312.94 385.68C313.25 383.65 313.56 381.63 313.87 379.6C316.47 379.65 319.08 379.7 321.69 379.75C321.96 381.38 322.23 383 322.5 384.63C326.49 384.19 326.06 382.83 326.2 378.94C326.64 379.23 327.07 379.53 327.5 379.83C329.64 379.87 331.78 379.91 333.91 379.95C334.11 381.23 334.3 382.52 334.5 383.8C336.56 384.58 336.56 384.46 338.56 383.5C338.77 382.03 338.99 380.55 339.2 379.08C339.52 379.08 339.85 379.08 340.18 379.08C342.34 379.29 344.51 379.51 346.67 379.72C346.95 381.12 347.22 382.51 347.5 383.91C348.5 383.87 349.5 383.83 350.5 383.79C351.1 382.07 351.71 380.35 352.31 378.64C352.54 378.92 352.77 379.21 353 379.5C355.03 379.54 357.07 379.58 359.1 379.61C360.05 384.33 362.65 383.46 364.99 380.12C365.33 380.05 365.66 379.98 366 379.92C367.92 379.84 369.83 379.75 371.75 379.67C372 380.29 372.25 380.91 372.5 381.52C375.33 381.76 376.18 381.85 378.04 379.64C379.19 379.35 380.35 379.05 381.5 378.76C382.17 378.92 382.83 379.07 383.5 379.22C383.86 379.03 384.23 378.85 384.59 378.66C384.9 379.46 385.2 380.26 385.5 381.05C388.01 380.79 389.08 380.47 390.9 378.79C391.1 379.03 391.3 379.27 391.5 379.5C393.65 379.27 395.8 379.03 397.94 378.8C399.71 380.09 400.3 379.97 402.5 379.93C402.94 379.29 403.38 378.64 403.81 377.99C404.04 378.34 404.27 378.69 404.5 379.03C406.5 378.92 408.5 378.81 410.5 378.7C410.76 378.28 411.01 377.86 411.27 377.43ZM522.5 386.54C522.27 389.25 522.31 390.45 523.5 392.81C526.92 393.25 529.43 393.51 532.3 391.5C528.24 388.72 525.61 392.28 522.5 386.54Z" fill="#f6a42b" fill-rule="evenodd" stroke="#f6a42b" stroke-width="0.25" stroke-linejoin="round"/>
<path d="M259.74 311.99C264.19 315.61 267.9 325.56 270.64 330.84C272.89 335.2 275.58 339.35 277.75 343.76C279.09 346.47 279.97 349.44 281.43 352.09C282.84 354.68 284.64 356.95 285.9 359.64C288.33 364.84 289.88 371.42 293.59 375.9C297.68 380.83 303.74 381.92 308.89 385C309.43 385.45 309.96 385.9 310.5 386.35C311.31 386.12 312.13 385.9 312.94 385.68C326.79 388.43 340.38 389.32 354.47 390.35C362.17 390.9 369.81 392.14 377.5 392.75C389.16 393.69 400.84 393.95 412.5 395.04C463.09 399.77 513.37 406.24 563.79 412.54C584.32 415.1 603.84 416.48 624.5 417.29C629.47 417.49 634.54 417.66 639.5 417.22C642.7 416.94 644.64 415.82 647.45 417.27C644.42 419.84 641.38 422.41 638.35 424.99C637.86 425.66 637.38 426.34 636.89 427.02C631.76 428.46 626.63 429.89 621.5 431.33C621.33 431.79 621.17 432.25 621 432.71C605.89 434.05 590.71 435.69 575.5 436.03C571.04 436.13 566.48 436.73 562.09 436.12C557.63 432.38 548.39 432.7 542.56 431.72C525.91 428.94 509.17 426.5 492.51 423.83C447.69 416.67 402.62 410.28 357.97 402.53C345.62 400.38 333.14 398.89 320.84 396.54C312.4 394.92 304.36 394.22 296.82 389.65C289.03 384.94 287.26 375.58 281.5 369.27C279.6 369.22 277.7 369.17 275.8 369.12C270.45 350.08 265.1 331.03 259.74 311.99ZM271.07 319.9C272.06 321.66 273.06 323.42 274.06 325.17C273.06 323.42 272.06 321.66 271.07 319.9ZM275.14 326.98C276.09 328.66 277.04 330.34 277.98 332.03C277.04 330.34 276.09 328.66 275.14 326.98ZM277.98 332.03C280.46 334.1 282.61 337.63 283.17 340.9C281.44 337.95 279.71 334.99 277.98 332.03ZM286.2 345.72C288.74 347.65 290.27 351.13 291.09 354.25C289.46 351.4 287.83 348.56 286.2 345.72Z" fill="#de5641" fill-rule="evenodd" stroke="#de5641" stroke-width="0.25" stroke-linejoin="round"/>
</svg>